<svg width="31" height="31" viewBox="0 0 31 31" fill="none" xmlns="http://www.w3.org/2000/svg">
<path d="M28.8784 7.18813C28.7893 7.06293 28.6716 6.96073 28.5352 6.88999C28.3988 6.81924 28.2474 6.78197 28.0937 6.78126H7.75L6.78125 3.58438C6.7173 3.38025 6.58759 3.20303 6.41234 3.08036C6.2371 2.95769 6.02619 2.89647 5.8125 2.90626H2.90625C2.64932 2.90626 2.40292 3.00832 2.22124 3.19C2.03956 3.37167 1.9375 3.61808 1.9375 3.87501C1.9375 4.13194 2.03956 4.37834 2.22124 4.56002C2.40292 4.74169 2.64932 4.84376 2.90625 4.84376H5.09562L9.73594 19.6656C9.79758 19.8617 9.91997 20.033 10.0854 20.1549C10.2508 20.2768 10.4508 20.343 10.6562 20.3438H24.2187C24.4218 20.3443 24.62 20.281 24.7851 20.1628C24.9503 20.0445 25.0741 19.8774 25.1391 19.685L29.0141 8.06001C29.0621 7.91432 29.0749 7.75931 29.0513 7.60773C29.0277 7.45616 28.9685 7.31234 28.8784 7.18813ZM23.5212 18.4063H11.3731L8.34094 8.71876H26.7472L23.5212 18.4063Z" fill="#F8FBFF"/>
<path d="M23.25 22.2812C22.6752 22.2812 22.1133 22.4517 21.6354 22.771C21.1574 23.0904 20.7849 23.5443 20.565 24.0753C20.345 24.6064 20.2875 25.1907 20.3996 25.7545C20.5117 26.3182 20.7885 26.8361 21.195 27.2425C21.6014 27.649 22.1193 27.9258 22.683 28.0379C23.2468 28.15 23.8311 28.0925 24.3622 27.8725C24.8932 27.6526 25.3471 27.2801 25.6665 26.8021C25.9858 26.3242 26.1562 25.7623 26.1562 25.1875C26.1562 24.4167 25.8501 23.6775 25.305 23.1325C24.76 22.5874 24.0208 22.2813 23.25 22.2812ZM23.25 26.1562C23.0584 26.1562 22.8711 26.0994 22.7118 25.993C22.5525 25.8865 22.4283 25.7352 22.355 25.5582C22.2817 25.3812 22.2625 25.1864 22.2999 24.9985C22.3372 24.8106 22.4295 24.638 22.565 24.5025C22.7005 24.367 22.8731 24.2747 23.061 24.2374C23.2489 24.2 23.4437 24.2192 23.6207 24.2925C23.7977 24.3658 23.949 24.49 24.0555 24.6493C24.1619 24.8086 24.2187 24.9959 24.2187 25.1875C24.2187 25.4444 24.1167 25.6908 23.935 25.8725C23.7533 26.0542 23.5069 26.1562 23.25 26.1562Z" fill="#F8FBFF"/>
<path d="M12.5937 22.2812C12.0189 22.2812 11.4571 22.4517 10.9791 22.771C10.5012 23.0904 10.1287 23.5443 9.90873 24.0753C9.68876 24.6064 9.63121 25.1907 9.74334 25.7545C9.85548 26.3182 10.1323 26.8361 10.5387 27.2425C10.9452 27.649 11.463 27.9258 12.0268 28.0379C12.5905 28.15 13.1749 28.0925 13.7059 27.8725C14.237 27.6526 14.6909 27.2801 15.0102 26.8021C15.3295 26.3242 15.5 25.7623 15.5 25.1875C15.5 24.4167 15.1938 23.6775 14.6488 23.1325C14.1037 22.5874 13.3645 22.2813 12.5937 22.2812ZM12.5937 26.1562C12.4021 26.1562 12.2149 26.0994 12.0555 25.993C11.8962 25.8865 11.7721 25.7352 11.6987 25.5582C11.6254 25.3812 11.6062 25.1864 11.6436 24.9985C11.681 24.8106 11.7733 24.638 11.9087 24.5025C12.0442 24.367 12.2168 24.2747 12.4048 24.2374C12.5927 24.2 12.7875 24.2192 12.9645 24.2925C13.1415 24.3658 13.2928 24.49 13.3992 24.6493C13.5057 24.8086 13.5625 24.9959 13.5625 25.1875C13.5625 25.4444 13.4604 25.6908 13.2788 25.8725C13.0971 26.0542 12.8507 26.1562 12.5937 26.1562Z" fill="#F8FBFF"/>
</svg>
