<svg width="27" height="27" viewBox="0 0 27 27" fill="none" xmlns="http://www.w3.org/2000/svg">
<path d="M24.627 3.2168H2.37305C1.06618 3.2168 0 4.28182 0 5.58984V21.4102C0 22.7137 1.06144 23.7832 2.37305 23.7832H24.627C25.9305 23.7832 27 22.7218 27 21.4102V5.58984C27 4.28625 25.9386 3.2168 24.627 3.2168ZM24.2993 4.79883L13.5503 15.5478L2.70838 4.79883H24.2993ZM1.58203 21.0826V5.90989L9.20104 13.4636L1.58203 21.0826ZM2.70069 22.2012L10.3245 14.5774L12.9959 17.2258C13.3051 17.5324 13.8041 17.5314 14.1121 17.2234L16.7168 14.6187L24.2993 22.2012H2.70069ZM25.418 21.0825L17.8355 13.5L25.418 5.91743V21.0825Z" fill="#7F4D4F"/>
</svg>
