<svg width="25" height="25" viewBox="0 0 25 25" fill="none" xmlns="http://www.w3.org/2000/svg">
<path d="M12.5 23.6092C12.8559 23.6092 13.1991 23.4802 13.4665 23.246C14.4764 22.3629 15.4501 21.533 16.3092 20.801L16.3136 20.7972C18.8322 18.6508 21.0072 16.7973 22.5205 14.9714C24.2121 12.9301 25 10.9947 25 8.88042C25 6.82621 24.2956 4.93107 23.0167 3.54385C21.7226 2.14024 19.9469 1.36719 18.0161 1.36719C16.573 1.36719 15.2514 1.82343 14.0881 2.72312C13.501 3.17726 12.9688 3.73306 12.5 4.38137C12.031 3.73306 11.499 3.17726 10.9118 2.72312C9.74849 1.82343 8.42689 1.36719 6.98379 1.36719C5.05317 1.36719 3.27725 2.14024 1.98311 3.54385C0.704237 4.93107 4.57764e-05 6.82621 4.57764e-05 8.88042C4.57764e-05 10.9947 0.787779 12.9301 2.4794 14.9712C3.99269 16.7973 6.16745 18.6506 8.68571 20.7968C9.54631 21.53 10.5215 22.3612 11.5338 23.2464C11.801 23.4802 12.1443 23.6092 12.5 23.6092ZM18.0161 2.83165C19.533 2.83165 20.9265 3.43704 21.9402 4.53644C22.9691 5.65243 23.5357 7.19509 23.5357 8.88042C23.5357 10.6586 22.8748 12.249 21.393 14.0369C19.9608 15.7652 17.8305 17.5806 15.3639 19.6827L15.3593 19.6865C14.497 20.4214 13.5195 21.2545 12.5021 22.1441C11.4786 21.2528 10.4996 20.4184 9.63557 19.6823C7.16918 17.5802 5.03906 15.7652 3.60684 14.0369C2.12521 12.249 1.46432 10.6586 1.46432 8.88042C1.46432 7.19509 2.03099 5.65243 3.05981 4.53644C4.07337 3.43704 5.46707 2.83165 6.98379 2.83165C8.09501 2.83165 9.11525 3.18489 10.0161 3.88145C10.8189 4.50249 11.3781 5.28755 11.706 5.83687C11.8746 6.11935 12.1714 6.28796 12.5 6.28796C12.8287 6.28796 13.1254 6.11935 13.2941 5.83687C13.6217 5.28755 14.181 4.50249 14.984 3.88145C15.8848 3.18489 16.905 2.83165 18.0161 2.83165Z" fill="#F8FBFF"/>
</svg>
