<svg width="28" height="28" viewBox="0 0 28 28" fill="none" xmlns="http://www.w3.org/2000/svg">
<g clip-path="url(#clip0_365_912)">
<path d="M20.1505 28C15.242 28 10.0003 26.1964 5.90187 22.0981C1.81032 18.0065 0 12.7682 0 7.84946C0 3.51444 3.50722 0 7.84946 0C8.18491 0 8.48652 0.204203 8.61109 0.515648L12.1257 9.30212C12.294 9.72278 12.0894 10.2001 11.6688 10.3684L7.80801 11.9127C8.08112 16.3543 11.6464 19.9194 16.0873 20.1921L17.6316 16.3313C17.7995 15.9114 18.2767 15.706 18.6979 15.8744L27.4843 19.3889C27.7957 19.5135 28 19.8151 28 20.1505C28 24.4856 24.4928 28 20.1505 28V28ZM7.30352 1.66414C4.16183 1.93599 1.64062 4.57051 1.64062 7.84946C1.64062 12.7936 3.56595 17.4419 7.06202 20.9379C10.558 24.434 15.2063 26.3594 20.1505 26.3594C23.4285 26.3594 26.0638 23.8396 26.3359 20.6965L18.8502 17.7022L17.3976 21.3338C17.273 21.6453 16.9714 21.8495 16.6359 21.8495C10.8539 21.8495 6.15054 17.1461 6.15054 11.3649C6.15054 11.0295 6.35474 10.727 6.66619 10.6024L10.2978 9.14977L7.30352 1.66414Z" fill="#7F4D4F"/>
</g>
<defs>
<clipPath id="clip0_365_912">
<rect width="28" height="28" fill="white"/>
</clipPath>
</defs>
</svg>
