<svg width="21" height="21" viewBox="0 0 21 21" fill="none" xmlns="http://www.w3.org/2000/svg">
<path d="M8.09332 11.058C8.03323 11.058 6.7111 11.058 6.11013 11.058C5.78961 11.058 5.68945 10.9378 5.68945 10.6373C5.68945 9.83602 5.68945 9.0147 5.68945 8.21341C5.68945 7.89289 5.80965 7.79273 6.11013 7.79273H8.09332C8.09332 7.73263 8.09332 6.57076 8.09332 6.02989C8.09332 5.2286 8.23355 4.46737 8.63419 3.76624C9.05487 3.04508 9.65584 2.56431 10.4171 2.28386C10.9179 2.10357 11.4187 2.02344 11.9595 2.02344H13.9227C14.2032 2.02344 14.3234 2.14363 14.3234 2.42408V4.70776C14.3234 4.98821 14.2032 5.10841 13.9227 5.10841C13.3818 5.10841 12.841 5.10841 12.3001 5.12844C11.7592 5.12844 11.4788 5.38886 11.4788 5.94976C11.4587 6.55073 11.4788 7.13166 11.4788 7.75266H13.8025C14.123 7.75266 14.2432 7.87286 14.2432 8.19337V10.6173C14.2432 10.9378 14.1431 11.038 13.8025 11.038C13.0814 11.038 11.5389 11.038 11.4788 11.038V17.5685C11.4788 17.909 11.3786 18.0292 11.018 18.0292C10.1767 18.0292 9.35536 18.0292 8.514 18.0292C8.21352 18.0292 8.09332 17.909 8.09332 17.6085C8.09332 15.5051 8.09332 11.1181 8.09332 11.058Z" fill="#7F4D4F"/>
</svg>
