<svg width="14" height="14" viewBox="0 0 14 14" fill="none" xmlns="http://www.w3.org/2000/svg">
<g clip-path="url(#clip0_365_95)">
<path d="M13.9326 13.9356V13.935H13.9361V8.82421C13.9361 6.32395 13.3978 4.39795 10.4748 4.39795C9.06969 4.39795 8.12672 5.16905 7.74175 5.90008H7.70111V4.63137H4.92969V13.935H7.81549V9.32821C7.81549 8.11524 8.04543 6.94234 9.54756 6.94234C11.0276 6.94234 11.0497 8.32659 11.0497 9.40601V13.9356H13.9326Z" fill="#7F4D4F"/>
<path d="M0.230469 4.63184H3.11976V13.9355H0.230469V4.63184Z" fill="#7F4D4F"/>
<path d="M1.67342 0C0.749613 0 0 0.749613 0 1.67342C0 2.59723 0.749613 3.36252 1.67342 3.36252C2.59723 3.36252 3.34684 2.59723 3.34684 1.67342C3.34626 0.749613 2.59664 0 1.67342 0V0Z" fill="#7F4D4F"/>
</g>
<defs>
<clipPath id="clip0_365_95">
<rect width="13.9355" height="13.9355" fill="white"/>
</clipPath>
</defs>
</svg>
