<svg width="22" height="22" viewBox="0 0 22 22" fill="none" xmlns="http://www.w3.org/2000/svg">
<path d="M21.7341 1.11205C21.7075 1.01974 21.6583 0.95573 21.6016 0.903778C21.5087 0.716497 21.2885 0.575718 21.0619 0.614797C21.0711 0.352952 20.8444 0.0885553 20.5228 0.163932C17.2176 0.937407 13.8244 1.735 10.5851 2.75386C8.23284 3.4937 5.88877 4.30997 3.55919 5.11986C2.55635 5.46845 1.14369 5.77123 0.288812 6.45413C0.117072 6.59132 0.106983 6.79704 0.182011 6.97354C0.0166479 7.05367 -0.0767021 7.28408 0.0812392 7.47461C1.17025 8.78801 2.78491 11.244 4.70398 11.6101C4.48179 14.5103 4.26054 17.6676 5.39546 20.3914C5.52928 20.7125 5.8759 20.8342 6.15398 20.5917C6.25927 20.4999 6.35239 20.3986 6.45223 20.3026C7.21492 20.3721 8.14227 19.6534 8.73333 19.285C9.55748 18.771 10.3475 18.2023 11.1239 17.6197C11.4763 17.3552 11.993 17.061 12.3259 16.7021C13.2005 17.2733 14.1227 17.749 15.1398 17.976C16.8505 18.3578 17.0823 17.705 17.8128 16.291C19.1391 13.7233 20.0155 10.8221 20.9429 8.08783C21.6909 5.88232 22.4012 3.41914 21.7341 1.11205ZM5.78579 15.7535C5.74416 16.3151 5.62774 17.0974 5.63469 17.8477C5.29365 15.8212 5.4168 13.7047 5.32635 11.6515C5.61742 11.6378 5.90721 11.5805 6.19503 11.4941C6.04822 12.9129 5.89132 14.3316 5.78579 15.7535ZM0.785597 7.28478C4.38786 6.03667 7.96508 4.70854 11.6032 3.56224C13.8831 2.84385 16.6078 2.64833 18.9529 1.83589C18.2313 2.40191 17.5402 3.04435 16.756 3.53638C15.0557 4.60313 13.2802 5.54533 11.529 6.52394C9.99408 7.38161 8.74006 8.65837 7.31291 9.68047C4.4869 11.7044 2.72391 9.14402 0.785597 7.28478ZM16.4134 5.74653C16.3992 5.63404 16.3854 5.52144 16.3783 5.40803C16.3695 5.26412 16.3723 5.11812 16.3743 4.97259C16.886 4.69346 17.39 4.40854 17.8677 4.10286C17.9458 4.053 18.0352 3.99815 18.1293 3.94086C17.8037 4.28991 17.4739 4.63641 17.1366 4.9821C16.8914 5.2335 16.6546 5.49175 16.4134 5.74653ZM15.9454 6.24123C15.8272 6.36786 15.7056 6.49147 15.5882 6.6188C15.5261 6.25178 15.431 5.88696 15.3531 5.51993C15.5202 5.43238 15.6832 5.34216 15.8494 5.25403C15.8268 5.59925 15.848 5.94343 15.9454 6.24123ZM13.9394 8.44673C13.7388 8.67507 13.5316 8.89806 13.3335 9.12848C13.2807 9.02168 13.1166 8.97796 13.0231 9.06725C12.8674 8.37576 12.751 7.6859 12.6943 6.96588C12.938 6.81942 13.1919 6.68328 13.4423 6.54366C13.4109 7.22645 13.4366 8.40255 13.9394 8.44673ZM13.8954 7.32885C13.8527 6.99638 13.8487 6.66125 13.8255 6.32773C14.1932 6.12828 14.5648 5.93323 14.9363 5.73899C14.9488 6.19983 15.0212 6.66844 15.1923 7.05656C14.8738 7.40631 14.5541 7.75524 14.2401 8.10893C14.211 8.08168 14.1748 8.06185 14.1307 8.05942C13.9704 8.05014 13.9093 7.43797 13.8954 7.32885ZM12.6931 9.87935C12.307 10.3406 11.9235 10.8044 11.5491 11.2758C11.5467 11.2755 11.5445 11.2748 11.542 11.2746C11.5181 11.1458 11.4866 11.0211 11.4699 10.8902C11.4258 10.5417 11.4147 10.1887 11.4027 9.83806C11.3823 9.24839 11.3876 8.6579 11.3671 8.06823C11.3643 7.98694 11.3134 7.9467 11.2554 7.92745C11.5981 7.66642 11.9615 7.42544 12.3322 7.19178C12.3334 8.09618 12.4546 9.00834 12.6931 9.87935ZM10.9475 10.8902C10.9541 11.0799 11.0528 11.4901 11.2131 11.7045C10.9857 11.9961 10.7511 12.2815 10.5288 12.5775C10.5306 12.0462 10.4462 11.4951 10.4022 10.9965C10.3398 10.2922 10.2768 9.56775 10.1062 8.87545C10.4114 8.60989 10.7048 8.35501 10.9778 8.13398C10.9963 8.1189 11.017 8.1058 11.0357 8.09084C10.9938 9.024 10.9149 9.95542 10.9475 10.8902ZM9.40395 14.5435C9.44303 14.5722 9.48211 14.603 9.52119 14.632C9.39943 14.7427 9.29042 14.8648 9.18698 14.9916C8.95552 13.3286 9.06394 11.6844 8.92386 10.0208C8.92004 9.97571 8.89928 9.94475 8.87527 9.91901C9.18629 9.6691 9.48535 9.41282 9.77607 9.1613C9.8867 9.8507 9.91766 10.5575 9.9332 11.2493C9.94816 11.9154 9.8373 12.6409 9.99559 13.2938C9.85087 13.4933 9.69606 13.684 9.55412 13.886C9.54786 13.8949 9.54797 13.9042 9.54264 13.9131C9.27245 13.9383 9.12483 14.3387 9.40395 14.5435ZM6.57051 18.8242C6.53074 16.323 6.81114 13.794 6.71466 11.303C7.36022 11.0253 7.98851 10.6061 8.58769 10.1448C8.58096 10.2149 8.5747 10.2858 8.56809 10.3564C8.55696 10.4363 8.55151 10.4404 8.54733 10.5806C8.41444 12.0843 8.34347 13.6755 8.66144 15.1368C8.69658 15.2981 8.82135 15.3482 8.94091 15.3261C8.70945 15.6644 8.50431 16.026 8.28607 16.3762C8.19608 16.5205 8.09948 16.6603 8.00787 16.8039C8.08986 15.9868 7.98329 15.0817 7.99245 14.3203C8.0059 13.2099 7.87266 12.0855 7.86466 10.997C7.86396 10.8939 7.71182 10.8955 7.70591 10.997C7.64201 12.0874 7.45171 13.2071 7.40881 14.3203C7.37042 15.3178 7.10058 16.5961 7.38886 17.5695C7.40057 17.6089 7.4269 17.6313 7.45044 17.6572C7.17271 18.0585 6.88269 18.4504 6.57051 18.8242ZM10.9305 16.6128C10.2891 17.1221 9.63321 17.6142 8.96955 18.0941C8.52912 18.4125 8.07444 18.708 7.61256 18.9926C7.92276 18.5856 8.21858 18.1663 8.50616 17.7359C9.04899 16.9232 9.7719 16.0266 10.1345 15.0947C10.5838 15.4399 11.0376 15.7915 11.5007 16.1298C11.3017 16.2879 11.1141 16.4669 10.9305 16.6128ZM18.3219 12.3473C17.5624 14.3052 17.3415 17.454 14.8178 16.908C13.2013 16.5583 11.6808 15.2276 10.2578 14.2834C13.7153 10.0773 17.5089 6.17594 20.979 2.00775C21.5006 5.37521 19.4891 9.33861 18.3219 12.3473Z" fill="#F8FBFF"/>
<path d="M2.1573 17.0278C1.99866 16.6044 1.89592 16.1641 1.84548 15.715C1.81104 15.4088 1.37861 15.3971 1.36052 15.715C1.33524 16.1616 1.4076 16.5825 1.51591 17.0154C1.62248 17.441 1.7425 17.9455 2.00365 18.3018C2.15127 18.503 2.58439 18.4747 2.54334 18.1556C2.49197 17.7547 2.29878 17.4056 2.1573 17.0278Z" fill="#F8FBFF"/>
<path d="M1.54897 18.4844C1.30464 18.0542 0.995713 17.7113 0.819218 17.2375C0.605846 16.6645 0.603759 16.0498 0.698965 15.4545C0.748365 15.1463 0.332754 15.0222 0.227344 15.3245C-0.168206 16.4577 0.0378604 18.2039 1.11747 18.9158C1.38999 19.0955 1.69914 18.7488 1.54897 18.4844Z" fill="#F8FBFF"/>
<path d="M11.6461 19.3795C11.5963 19.1946 11.3807 19.114 11.2175 19.2051C11.0259 19.312 10.985 19.4636 10.8859 19.6489C10.7914 19.826 10.6665 19.9798 10.529 20.1247C10.2254 20.4448 9.82661 20.6537 9.43314 20.8416C9.14579 20.9786 9.34988 21.4598 9.64976 21.3553C10.1165 21.1925 10.5358 20.9649 10.9184 20.6511C11.2458 20.3823 11.7678 19.8335 11.6461 19.3795Z" fill="#F8FBFF"/>
<path d="M12.5246 19.5808C12.2262 19.8446 11.9817 20.1954 11.6873 20.4736C11.3626 20.7804 10.9792 21.0458 10.6776 21.3738C10.4571 21.6135 10.7328 21.9587 11.0182 21.8151C11.4345 21.6057 11.8147 21.2546 12.1735 20.9598C12.4812 20.7071 12.9277 20.3951 13.1067 20.03C13.2935 19.6493 12.8459 19.2967 12.5246 19.5808Z" fill="#F8FBFF"/>
</svg>
