<svg width="15" height="17" viewBox="0 0 15 17" fill="none" xmlns="http://www.w3.org/2000/svg">
<path d="M7.73092 0C3.07079 0.000708333 0.59375 2.98633 0.59375 6.24183C0.59375 7.75129 1.43737 9.63475 2.78817 10.2319C3.1735 10.4054 3.1225 10.1936 3.454 8.92571C3.48021 8.82016 3.46675 8.72879 3.38175 8.63033C1.45083 6.39696 3.00492 1.80554 7.45537 1.80554C13.8962 1.80554 12.6928 10.7178 8.57596 10.7178C7.51487 10.7178 6.72437 9.88479 6.97442 8.85417C7.27758 7.62662 7.87117 6.307 7.87117 5.42229C7.87117 3.19246 4.54908 3.52325 4.54908 6.47771C4.54908 7.39075 4.87208 8.007 4.87208 8.007C4.87208 8.007 3.80321 12.325 3.60487 13.1318C3.26912 14.4975 3.65021 16.7082 3.6835 16.8987C3.70404 17.0035 3.82162 17.0368 3.8875 16.9504C3.99304 16.8123 5.28504 14.9692 5.647 13.6368C5.77875 13.1516 6.31921 11.1825 6.31921 11.1825C6.6755 11.8256 7.70258 12.364 8.79696 12.364C12.0525 12.364 14.4055 9.50229 14.4055 5.95142C14.3942 2.54717 11.4808 0 7.73092 0V0Z" fill="#7F4D4F"/>
</svg>
