<svg width="20" height="20" viewBox="0 0 20 20" fill="none" xmlns="http://www.w3.org/2000/svg">
<path d="M15.1708 4.89567L15.4845 5.82301C15.564 5.81337 15.6429 5.80235 15.7212 5.78996C15.5994 5.89393 15.472 5.99483 15.3389 6.09265L15.0978 6.26993L15.1402 6.56619C15.1535 6.65936 15.1543 6.758 15.1543 6.89787C15.1543 10.8226 12.1775 15.327 6.72513 15.327C5.72632 15.327 4.77282 15.1551 3.8866 14.8376C5.09759 14.619 6.09656 14.1004 6.86159 13.4993L7.97294 12.6261L6.55972 12.6062C5.69253 12.594 4.91248 12.142 4.44064 11.4617C4.71197 11.4446 4.98914 11.4037 5.18807 11.3415L5.13827 10.3742C4.19771 10.1836 3.42099 9.46431 3.14081 8.51824C3.40043 8.58553 3.67176 8.62419 3.94674 8.62419H5.58235L4.22631 7.70965C3.89107 7.48356 3.44498 7.0122 3.20983 6.38854C3.04464 5.95044 2.98038 5.43148 3.14166 4.85073C4.75012 6.51089 6.95509 7.59504 9.424 7.70396L10.0937 7.7335L9.93111 7.08318C9.88664 6.90531 9.86939 6.71884 9.86939 6.49548C9.86939 5.04512 11.0463 3.85303 12.5118 3.85303C13.2691 3.85303 13.9625 4.17524 14.4464 4.69139L14.6401 4.89796L14.9169 4.83812C15.0982 4.79891 15.2777 4.7537 15.455 4.70215C15.3649 4.77266 15.27 4.83733 15.1708 4.89567Z" fill="#7F4D4F" stroke="#7F4D4F"/>
</svg>
