<svg width="25" height="25" viewBox="0 0 25 25" fill="none" xmlns="http://www.w3.org/2000/svg">
<path d="M24.9891 17.862L23.1695 9.90308C23.1657 9.88662 23.1608 9.87067 23.1554 9.85513C23.0168 9.35172 22.3498 8.97133 21.0497 8.65126C20.8024 7.3521 19.6587 6.36664 18.2887 6.36664C18.2012 6.36664 18.1136 6.37083 18.0261 6.37906C17.5484 5.45692 16.5854 4.85879 15.5285 4.85879C15.2059 4.85879 14.8855 4.91466 14.5835 5.0222C14.1327 4.32149 13.3549 3.88763 12.5001 3.88763C11.6452 3.88763 10.8675 4.32143 10.4166 5.0222C10.1146 4.91466 9.79416 4.85879 9.47158 4.85879C8.41465 4.85879 7.45168 5.45697 6.97397 6.37906C6.88646 6.37078 6.79886 6.36664 6.71145 6.36664C5.34136 6.36664 4.19769 7.3521 3.95041 8.65126C2.61997 8.97884 1.95207 9.3694 1.83554 9.8905C1.8338 9.89684 1.83165 9.90297 1.83022 9.90946L0.0109383 17.862C0.00368017 17.8937 0 17.9262 0 17.9588C0 18.7915 1.30022 19.534 3.86443 20.1658C6.34221 20.7762 9.40907 21.1124 12.5 21.1124C15.591 21.1124 18.6578 20.7762 21.1356 20.1658C23.6998 19.534 25 18.7915 25 17.9589C25 17.9263 24.9964 17.8938 24.9891 17.862ZM21.0738 9.5551C21.9007 9.77953 22.1897 9.97683 22.2827 10.062C22.1758 10.1601 21.8094 10.407 20.6702 10.6707C20.8811 10.3343 21.0198 9.9546 21.0738 9.5551ZM6.7114 7.23552C6.85447 7.23552 6.99897 7.25177 7.14091 7.28377C7.35446 7.33202 7.57041 7.21379 7.64499 7.00801C7.92264 6.24218 8.65663 5.72762 9.47153 5.72762C9.79692 5.72762 10.1188 5.80965 10.4024 5.96489C10.5106 6.02407 10.6388 6.03455 10.7552 5.99361C10.8715 5.95267 10.965 5.86419 11.0123 5.75026C11.2627 5.14651 11.8467 4.75646 12.5001 4.75646C13.1534 4.75646 13.7373 5.14656 13.9878 5.75026C14.035 5.86419 14.1285 5.95267 14.2449 5.99361C14.3612 6.03455 14.4895 6.02407 14.5977 5.96489C14.8812 5.80965 15.2031 5.72762 15.5285 5.72762C16.3434 5.72762 17.0774 6.24218 17.3551 7.00801C17.4296 7.21374 17.6456 7.33212 17.8591 7.28377C18.0011 7.25177 18.1456 7.23552 18.2887 7.23552C19.3596 7.23552 20.2019 8.10726 20.231 9.17783C20.2511 9.91882 19.7225 10.5698 19.2073 10.9423C17.3557 11.2202 14.9821 11.3728 12.5001 11.3728C10.0796 11.3728 7.76245 11.2276 5.93182 10.9627C5.24792 10.6438 4.76914 9.93267 4.76914 9.17783C4.76909 8.10685 5.64042 7.23552 6.7114 7.23552ZM3.92608 9.55515C3.98046 9.95588 4.12041 10.3355 4.33069 10.6709C3.19086 10.4071 2.82427 10.1602 2.71734 10.062C2.81032 9.97683 3.09921 9.77959 3.92608 9.55515ZM20.7349 19.3687C18.3556 19.9329 15.4311 20.2435 12.5001 20.2435C9.56905 20.2435 6.64449 19.9329 4.26516 19.3687C1.92141 18.813 0.993543 18.2068 0.877363 17.9712L2.48294 10.9526C2.64763 11.045 2.80296 11.1076 2.8943 11.1443C3.43922 11.3637 4.20827 11.5588 5.18004 11.7244C7.13917 12.058 9.73875 12.2417 12.5001 12.2417C15.2614 12.2417 17.8609 12.058 19.82 11.7244C20.7918 11.5588 21.5608 11.3637 22.1058 11.1443C22.1972 11.1075 22.3529 11.0448 22.518 10.9521L24.1227 17.9711C24.0066 18.2067 23.0787 18.813 20.7349 19.3687Z" fill="#555555"/>
<path d="M17.7862 12.5882C16.7766 12.5882 15.9363 13.3268 15.7772 14.292H9.22465C9.06559 13.3268 8.22523 12.5882 7.21569 12.5882C6.09303 12.5882 5.17969 13.5015 5.17969 14.6242C5.17969 15.072 5.32603 15.5008 5.59074 15.8509C5.32603 16.201 5.17969 16.6298 5.17969 17.0776C5.17969 18.2003 6.09303 19.1137 7.21569 19.1137C8.22523 19.1137 9.06554 18.375 9.22465 17.4099H15.7772C15.9363 18.3751 16.7766 19.1137 17.7862 19.1137C18.9088 19.1137 19.8222 18.2003 19.8222 17.0776C19.8222 16.6298 19.6758 16.201 19.4111 15.8509C19.6758 15.5008 19.8222 15.072 19.8222 14.6242C19.8222 13.5015 18.9088 12.5882 17.7862 12.5882ZM18.536 16.1837C18.8012 16.4063 18.9532 16.7322 18.9532 17.0777C18.9532 17.7212 18.4297 18.2448 17.7862 18.2448C17.1426 18.2448 16.619 17.7212 16.619 17.0777C16.619 17.0526 16.6201 17.0277 16.6216 17.003C16.6293 16.8833 16.587 16.7657 16.5048 16.6782C16.4227 16.5907 16.3081 16.5411 16.188 16.5411H8.8138C8.69379 16.5411 8.57914 16.5907 8.497 16.6782C8.41486 16.7657 8.37259 16.8833 8.38021 17.003C8.38179 17.0277 8.38281 17.0526 8.38281 17.0777C8.38281 17.7212 7.85926 18.2448 7.21569 18.2448C6.57217 18.2448 6.04862 17.7212 6.04862 17.0777C6.04862 16.7322 6.20068 16.4064 6.46586 16.1837C6.56415 16.1011 6.62093 15.9793 6.62093 15.851C6.62093 15.7226 6.5642 15.6008 6.46586 15.5183C6.20068 15.2956 6.04862 14.9698 6.04862 14.6243C6.04862 13.9807 6.57217 13.4572 7.21569 13.4572C7.85926 13.4572 8.38281 13.9807 8.38281 14.6243C8.38281 14.6493 8.38179 14.6742 8.38021 14.6989C8.37259 14.8187 8.41486 14.9363 8.497 15.0238C8.57909 15.1113 8.69379 15.1609 8.8138 15.1609H16.188C16.3081 15.1609 16.4227 15.1113 16.5048 15.0238C16.587 14.9362 16.6293 14.8187 16.6216 14.6989C16.6201 14.6742 16.619 14.6493 16.619 14.6243C16.619 13.9807 17.1426 13.4572 17.7862 13.4572C18.4297 13.4572 18.9532 13.9807 18.9532 14.6243C18.9532 14.9697 18.8012 15.2956 18.536 15.5183C18.4377 15.6008 18.3809 15.7226 18.3809 15.851C18.381 15.9793 18.4377 16.1011 18.536 16.1837Z" fill="#555555"/>
</svg>
