<svg width="62" height="60" viewBox="0 0 62 60" fill="none" xmlns="http://www.w3.org/2000/svg">
<path d="M8.74816 36.7502C12.3044 47.6739 26.2082 50.4721 33.1652 41.085C33.5332 40.628 33.8465 40.0518 34.1276 39.5626C27.668 35.3775 22.7086 27.6927 24.3968 21.2937C25.9455 15.5357 32.211 15.9866 34.7847 20.5073C37.8275 25.8953 38.9192 32.5369 37.0127 38.4585C41.307 40.7492 46.1936 41.1819 50.2776 37.6539C57.1456 31.6979 55.4211 19.5752 49.2183 13.902C48.5329 13.3501 49.3335 12.2623 50.0189 12.8143C59.036 19.4358 59.0117 35.4604 49.0383 41.2507C45.1463 43.4646 40.4113 42.8903 36.0847 40.6865C33.2764 46.3718 26.922 49.3519 20.7658 49.1396C13.6431 48.8646 8.95046 43.6546 7.05612 37.3081C6.73856 36.2992 8.39853 35.8283 8.74816 36.7502ZM34.7564 26.4351C34.0771 24.005 33.0601 21.1522 31.004 19.4964C29.0349 17.8729 27.0878 20.7115 26.4834 22.0701C25.7495 23.7765 26.3843 25.7943 27.0616 27.4319C28.406 31.0002 31.4447 34.8033 35.0556 37.3344C36.0564 33.8469 35.6338 29.9288 34.7564 26.4351Z" fill="#333333"/>
<path d="M5.07767 31.7221C7.51189 32.6278 9.96836 33.7398 12.0892 35.2218C12.9483 35.8384 12.0285 36.9807 11.1368 36.451C9.35359 35.3915 7.3217 34.7345 5.37674 34.1097C5.0432 35.2721 4.67725 36.5216 4.43059 37.7164C4.28098 38.6505 4.4043 40.181 3.55919 40.8563C3.13659 41.1941 2.70191 41.0323 2.33197 40.6966C1.45048 39.8737 2.1298 38.048 2.31177 37.027C2.63329 35.365 3.09637 33.8549 3.6787 32.2899C3.87269 31.7686 4.55605 31.528 5.07767 31.7221Z" fill="#333333"/>
</svg>
