<svg width="23" height="23" viewBox="0 0 23 23" fill="none" xmlns="http://www.w3.org/2000/svg">
<g clip-path="url(#clip0_365_866)">
<path d="M0.067812 14.6141C0.067812 14.2724 0.338451 12.8395 1.12042 11.2756C0.912506 8.60311 0.644112 2.04998 2.58133 0.204621C2.75813 0.0361225 3.00848 -0.030819 3.24585 0.0265595C5.8444 0.655567 7.9784 2.49572 8.98473 4.97888C10.6822 4.57948 12.3319 4.57135 13.9944 4.97381C14.021 4.98023 15.2899 1.10189 19.7321 0.0265595C19.9695 -0.030819 20.2197 0.0362123 20.3966 0.204621C22.7028 2.40166 21.8476 11.215 21.8649 11.2468C21.8649 11.3067 22.6854 12.6225 22.9345 14.6345C23.1841 16.4594 22.6398 17.7401 22.6398 17.7856C21.1463 21.9438 15.9303 22.9937 11.5 22.9937C7.07238 22.9937 1.84645 21.9421 0.360092 17.7856C0.360092 17.7811 -0.187517 16.3672 0.067812 14.6141ZM3.34144 1.54309C2.16482 3.47358 2.44475 9.23634 2.4487 9.2318C3.87971 7.4414 5.70832 6.14518 7.60895 5.41115C6.79882 3.50509 5.21032 2.12779 3.34144 1.54309ZM19.6366 1.54305C17.7658 2.12815 16.1805 3.50675 15.3717 5.40402C17.2831 6.13651 19.1107 7.43745 20.5349 9.21156C20.5987 7.31861 20.62 3.15382 19.6366 1.54305ZM4.22708 20.0969C7.7862 22.0546 15.211 22.0561 18.7728 20.0969C19.647 19.6161 20.3173 19.0234 20.7811 18.3244H18.6835C18.2868 18.3244 17.9651 18.0028 17.9651 17.606C17.9651 17.2093 18.2868 16.8877 18.6835 16.8877H21.4074C21.522 16.4214 21.5681 15.9237 21.5551 15.451H18.6835C18.2868 15.451 17.9651 15.1294 17.9651 14.7326C17.9651 14.3359 18.2868 14.0143 18.6835 14.0143H21.3701C20.6383 10.8298 17.8617 7.65731 14.2329 6.52914C8.41741 4.72391 2.75378 9.12306 1.62974 14.0143H4.31638C4.71313 14.0143 5.03473 14.3359 5.03473 14.7326C5.03473 15.1294 4.71313 15.451 4.31638 15.451H1.44476C1.43174 15.9233 1.47776 16.4211 1.59247 16.8877H4.31638C4.71313 16.8877 5.03473 17.2093 5.03473 17.606C5.03473 18.0028 4.71313 18.3244 4.31638 18.3244H2.21878C2.68262 19.0234 3.35293 19.6161 4.22708 20.0969Z" fill="#555555"/>
<path d="M7.54969 17.4264C7.94644 17.4264 8.26804 17.748 8.26804 18.1448C8.26804 18.838 8.83199 19.4019 9.52516 19.4019C10.0957 19.4019 10.5783 19.0197 10.7314 18.4981C9.52655 17.9045 8.886 15.9798 9.72719 15.1453C10.2245 14.6518 10.9439 14.7378 11.685 14.7316C12.2566 14.7276 12.848 14.7226 13.2741 15.1453C14.1246 15.9891 13.4625 17.9106 12.2699 18.4981C12.4229 19.0197 12.9056 19.4019 13.4761 19.4019C14.1693 19.4019 14.7332 18.838 14.7332 18.1448C14.7332 17.748 15.0549 17.4264 15.4516 17.4264C15.8483 17.4264 16.1699 17.748 16.1699 18.1448C16.1699 20.5982 13.1558 21.7601 11.5006 19.9737C9.84635 21.7592 6.83133 20.6 6.83133 18.1448C6.83133 17.748 7.15293 17.4264 7.54969 17.4264ZM10.7824 16.1816C10.7891 16.6883 11.2128 17.2468 11.5006 17.2468C11.7885 17.2468 12.2121 16.6884 12.2189 16.1816C12.049 16.1612 10.9369 16.163 10.7824 16.1816Z" fill="#555555"/>
<path d="M14.9128 13.2959C14.2196 13.2959 13.6557 12.732 13.6557 12.0388C13.6557 11.3456 14.2196 10.7817 14.9128 10.7817C15.606 10.7817 16.1699 11.3456 16.1699 12.0388C16.1699 12.732 15.606 13.2959 14.9128 13.2959Z" fill="#555555"/>
<path d="M8.08858 10.7817C8.7818 10.7817 9.3457 11.3456 9.3457 12.0388C9.3457 12.732 8.7818 13.2959 8.08858 13.2959C7.39537 13.2959 6.83146 12.732 6.83146 12.0388C6.83146 11.3456 7.39537 10.7817 8.08858 10.7817Z" fill="#555555"/>
</g>
<defs>
<clipPath id="clip0_365_866">
<rect width="23" height="23" fill="white" transform="matrix(-1 0 0 1 23 0)"/>
</clipPath>
</defs>
</svg>
