<svg width="88" height="74" viewBox="0 0 88 74" fill="none" xmlns="http://www.w3.org/2000/svg">
<path opacity="0.96" d="M53.7974 50.6233C53.8159 50.6668 53.8342 50.7101 53.8525 50.7532L53.3708 19.8653C53.3314 17.3366 51.6978 15.1091 49.2978 14.3117C44.4619 12.7049 39.9827 17.5205 41.9347 22.2231C43.5198 26.0419 45.2624 30.2344 46.9802 34.356L46.9802 34.3562C49.4982 40.3997 51.962 46.2886 53.7974 50.6233Z" stroke="#7F4D4F" stroke-width="3"/>
<path opacity="0.96" d="M40.0671 58.3104C41.9909 58.9438 43.7746 59.5286 45.3535 60.043L22.0959 40.3199C20.0541 38.5884 17.1395 38.3406 14.8346 39.7025C10.3285 42.3652 10.9924 48.6456 15.9446 50.299C23.6345 52.8666 32.833 55.9289 40.0671 58.3104Z" stroke="#7F4D4F" stroke-width="3"/>
<path opacity="0.96" d="M72.6971 46.2725C71.7738 50.3338 70.7203 54.9866 69.874 58.7755L78.0414 46.8405C78.3837 46.3403 78.3747 45.679 78.0189 45.1883C77.8619 44.9718 77.5526 44.7513 77.0136 44.6267C76.477 44.5027 75.8118 44.5013 75.1336 44.6396C74.4553 44.7779 73.8443 45.0396 73.3999 45.3636C72.9536 45.6889 72.7563 46.0123 72.6971 46.2725Z" stroke="#7F4D4F" stroke-width="3"/>
</svg>
