<svg width="25" height="25" viewBox="0 0 25 25" fill="none" xmlns="http://www.w3.org/2000/svg">
<g clip-path="url(#clip0_365_877)">
<path d="M16.5773 1.41602H8.42266C3.77846 1.41602 0 5.19447 0 9.83868V11.7804C0 14.2752 1.87016 16.3412 4.282 16.6506C4.9511 20.5814 8.38108 23.5836 12.4994 23.5836C16.618 23.5836 20.0478 20.5814 20.7169 16.6508C23.1295 16.3418 25 14.2756 25 11.7804V9.83868C25 5.19447 21.2215 1.41602 16.5773 1.41602V1.41602ZM23.5062 11.7804C23.5062 13.4079 22.3618 14.7724 20.8357 15.1136V8.04958C20.8357 7.63702 20.5011 7.30247 20.0888 7.30247C19.6762 7.30247 19.3417 7.63702 19.3417 8.04958V15.2475C19.3417 19.0205 16.2724 22.0898 12.4994 22.0898C8.7265 22.0898 5.6572 19.0203 5.6572 15.2475V8.04958C5.6572 7.63702 5.32284 7.30247 4.91028 7.30247C4.49772 7.30247 4.16336 7.63702 4.16336 8.04958V15.1134C2.63767 14.7718 1.49384 13.4075 1.49384 11.7804V9.83868C1.49384 6.01807 4.60205 2.90985 8.42266 2.90985H16.5773C20.3979 2.90985 23.5062 6.01807 23.5062 9.83868V11.7804Z" fill="#555555"/>
<path d="M13.7633 15.1968H11.2347C10.6835 15.1968 10.1731 15.4957 9.90281 15.9771C9.63044 16.4617 9.63998 17.0337 9.92818 17.507C10.4794 18.4118 11.4403 18.9522 12.4989 18.9522C13.5575 18.9522 14.5184 18.4118 15.0696 17.507C15.3578 17.0337 15.3674 16.4617 15.095 15.9771C14.8247 15.4957 14.3143 15.1968 13.7633 15.1968ZM13.7938 16.7299C13.5161 17.1858 13.032 17.4581 12.4989 17.4581C11.966 17.4581 11.4819 17.1858 11.2042 16.7299C11.2011 16.7249 11.2006 16.7227 11.2006 16.7227C11.2004 16.7196 11.2034 16.7085 11.212 16.6992C11.2185 16.6923 11.2233 16.6906 11.2347 16.6906H13.7633C13.7747 16.6906 13.7795 16.6923 13.786 16.6992C13.7946 16.7085 13.7976 16.7196 13.7974 16.7225C13.7974 16.7225 13.7969 16.7248 13.7938 16.7299Z" fill="#555555"/>
<path d="M9.89813 10.392C9.89813 9.97944 9.56377 9.64508 9.15121 9.64508C8.73866 9.64508 8.4043 9.97944 8.4043 10.392V11.7044C8.4043 12.1168 8.73866 12.4514 9.15121 12.4514C9.56377 12.4514 9.89813 12.1168 9.89813 11.7044V10.392Z" fill="#555555"/>
<path d="M15.8487 9.64508C15.4361 9.64508 15.1016 9.97944 15.1016 10.392V11.7044C15.1016 12.1168 15.4361 12.4514 15.8487 12.4514C16.261 12.4514 16.5956 12.1168 16.5956 11.7044V10.392C16.5956 9.97944 16.261 9.64508 15.8487 9.64508Z" fill="#555555"/>
</g>
<defs>
<clipPath id="clip0_365_877">
<rect width="25" height="25" fill="white"/>
</clipPath>
</defs>
</svg>
