<svg width="26" height="26" viewBox="0 0 26 26" fill="none" xmlns="http://www.w3.org/2000/svg">
<g clip-path="url(#clip0_365_860)">
<path d="M21.5079 3.82487C21.3099 4.02343 21.3099 4.34478 21.5079 4.54335C21.7064 4.74132 22.0278 4.74132 22.2263 4.54335C22.4243 4.34478 22.4243 4.02343 22.2263 3.82487C22.0278 3.6269 21.7064 3.6269 21.5079 3.82487Z" fill="#7F4D4F"/>
<path d="M21.5068 0.00637084C18.5162 0.121819 14.8849 1.53418 11.995 4.06095C10.1424 3.65489 8.19073 4.21825 6.84324 5.56574C6.24933 6.15945 6.24933 7.12568 6.84324 7.71958L8.49324 9.36958C7.44865 12.3819 7.24929 15.5976 7.22291 17.2385C6.31836 16.6396 5.2581 16.3179 4.14845 16.3179C2.65655 16.3179 1.25431 16.8987 0.199406 17.9536C0.00123966 18.1518 0.00123966 18.4733 0.199406 18.6715C1.25431 19.7262 2.65655 20.3072 4.14845 20.3072C4.8215 20.3072 5.47611 20.1886 6.08886 19.9619C5.86232 20.5748 5.7437 21.2294 5.7437 21.9025C5.7437 23.3942 6.32451 24.7966 7.37922 25.8513C7.4784 25.9505 7.60833 26.0001 7.73826 26.0001C7.86819 26.0001 7.99812 25.9505 8.0973 25.8513C9.15201 24.7966 9.73302 23.3942 9.73302 21.9025C9.73302 20.7926 9.41127 19.7324 8.81221 18.8278C10.4535 18.8016 13.6692 18.6025 16.6815 17.5579L18.3313 19.2077C18.925 19.8014 19.8913 19.8014 20.485 19.2077C21.8325 17.8602 22.3958 15.9087 21.99 14.0563C24.2142 11.5099 25.9293 7.91001 26.0445 4.4908C26.0961 2.95843 25.7307 1.64724 25.067 0.983714C24.3951 0.311852 23.0643 -0.0535353 21.5068 0.00637084ZM7.56112 6.28382C8.48828 5.35666 9.76515 4.88337 11.0494 4.95359C10.1962 5.8369 9.47276 6.97056 8.89254 8.33273L7.56112 7.0015C7.36335 6.80373 7.36335 6.48159 7.56112 6.28382ZM1.32076 18.3127C2.12335 17.6779 3.10942 17.3333 4.14845 17.3333C5.18749 17.3333 6.17356 17.6779 6.97614 18.3127C6.17356 18.9474 5.18749 19.2918 4.14845 19.2918C3.10942 19.2918 2.12335 18.9472 1.32076 18.3127ZM7.73826 24.7302C7.10349 23.9276 6.75913 22.9415 6.75913 21.9025C6.75913 20.8634 7.10349 19.8774 7.73826 19.0748C8.37303 19.8776 8.71759 20.8634 8.71759 21.9025C8.71759 22.9415 8.37303 23.9276 7.73826 24.7302ZM19.7671 18.4896C19.5693 18.6876 19.2472 18.6876 19.0494 18.4896L17.718 17.1584C19.0804 16.578 20.214 15.8547 21.0973 15.0016C21.1676 16.2858 20.6943 17.5626 19.7671 18.4896ZM25.0297 4.45668C24.9825 5.86091 24.6009 7.47123 23.9528 9.01649C22.5343 9.36403 20.986 9.08909 19.6683 8.24664C19.4323 8.09568 19.1182 8.16471 18.9671 8.40117C18.8161 8.63722 18.8852 8.95123 19.1214 9.10238C20.4203 9.93254 21.9386 10.3082 23.4307 10.1386C22.7926 11.3826 21.9965 12.5367 21.0563 13.5795V13.5797C20.8722 13.784 20.68 13.9865 20.485 14.1813C17.6775 16.9888 12.2185 17.8296 8.23715 17.8136C8.22009 13.8358 9.05619 8.37915 11.8696 5.56594C12.066 5.36936 12.2683 5.17754 12.4716 4.99485C13.515 4.05341 14.6695 3.25677 15.9135 2.61824C15.7964 3.6656 15.946 4.7574 16.3558 5.77839C16.4604 6.03904 16.7563 6.1646 17.016 6.06046C17.2762 5.95592 17.4026 5.66036 17.2981 5.40011C16.8662 4.32418 16.7752 3.16057 17.035 2.09654C18.5626 1.45582 20.1555 1.07476 21.5458 1.02101C22.9578 0.966456 23.971 1.32391 24.3491 1.70179C24.7215 2.07412 25.0763 3.07051 25.0297 4.45668Z" fill="#7F4D4F"/>
<path d="M17.5118 6.97251C17.3138 7.17107 17.3138 7.49242 17.5118 7.69098C17.7103 7.88895 18.0317 7.88895 18.2302 7.69098C18.4282 7.49242 18.4282 7.17107 18.2302 6.97251C18.0317 6.77454 17.7103 6.77454 17.5118 6.97251Z" fill="#7F4D4F"/>
</g>
<defs>
<clipPath id="clip0_365_860">
<rect width="26" height="26" fill="white"/>
</clipPath>
</defs>
</svg>
