<svg width="25" height="25" viewBox="0 0 25 25" fill="none" xmlns="http://www.w3.org/2000/svg">
<path d="M19.8728 5.17662C20.2772 5.17662 20.605 4.84882 20.605 4.44445C20.605 4.04008 20.2772 3.71228 19.8728 3.71228C19.4684 3.71228 19.1406 4.04008 19.1406 4.44445C19.1406 4.84882 19.4684 5.17662 19.8728 5.17662Z" fill="#555555"/>
<path d="M20.4098 0.917641C18.0176 0.412407 15.7006 1.37648 14.3706 3.24152L0.144576 23.0536C-0.319679 23.6999 0.425136 24.4896 1.09232 24.1221L6.24783 21.2842H7.88332C10.3312 21.2842 12.6684 20.8088 14.748 19.8986V22.7485H12.5515C12.1472 22.7485 11.8193 23.0764 11.8193 23.4807C11.8193 23.885 12.1472 24.2129 12.5515 24.2129H15.4801C15.6743 24.2129 15.8605 24.1357 15.9978 23.9984C16.2507 23.7455 16.5869 23.6063 16.9444 23.6063C17.302 23.6063 17.6382 23.7456 17.891 23.9984C18.1769 24.2843 18.6405 24.2843 18.9264 23.9984C19.2124 23.7125 19.2124 23.2489 18.9264 22.963C18.397 22.4335 17.6931 22.142 16.9444 22.142C16.6936 22.142 16.448 22.1751 16.2122 22.2385V19.1607C16.324 19.0964 16.4351 19.0312 16.545 18.9641C18.2879 17.8995 20.6052 16.0577 20.6052 12.371V8.20969C21.4543 8.48735 22.0695 9.28711 22.0695 10.2278C22.0695 10.5253 22.2495 10.7932 22.5249 10.9056C22.8003 11.018 23.1164 10.9527 23.3246 10.7402C26.5485 7.45036 24.8719 1.85997 20.4098 0.917641ZM3.2265 21.2721C3.23034 21.2667 10.8732 10.6679 10.8766 10.6631C11.7956 9.37434 13.1793 9.25322 14.1677 9.56954C15.1561 9.88587 16.2123 10.7879 16.2123 12.3707C16.2123 13.4382 15.6327 14.4233 14.7014 14.9407L3.2265 21.2721ZM19.508 6.73831C19.2877 6.86524 19.1421 7.10187 19.1409 7.36993V12.371C19.1409 14.6475 18.1049 16.2955 15.7817 17.7145C13.8043 18.9224 11.4604 19.6308 8.94938 19.7868L15.4107 16.2217C16.8084 15.4452 17.6766 13.9696 17.6766 12.3707C17.6766 10.4173 16.4744 8.77027 14.614 8.17491C13.9968 7.97739 13.3715 7.91693 12.7699 7.98133L15.5614 4.09368C16.5894 2.65216 18.3272 1.9745 20.1071 2.3504C21.3792 2.61906 22.4622 3.47687 23.05 4.61308L19.508 6.73831ZM23.1087 8.53482C22.79 7.94212 22.3098 7.44899 21.7271 7.11451L23.4959 6.05322C23.6083 6.92442 23.4716 7.77736 23.1087 8.53482Z" fill="#555555"/>
</svg>
