<svg width="26" height="26" viewBox="0 0 26 26" fill="none" xmlns="http://www.w3.org/2000/svg">
<g clip-path="url(#clip0_365_830)">
<path d="M21.8405 21.2315C22.3146 20.1244 22.8478 18.0447 21.9647 15.2795C21.8926 15.0539 21.7682 14.4868 22.168 14.0946C23.4461 12.8408 24.058 11.598 23.9868 10.4006C23.9173 9.23158 23.3287 8.11479 22.3294 7.25586C21.999 6.9718 21.6336 6.72782 21.2479 6.52795C21.3186 5.79575 21.2724 5.09899 21.1087 4.45037C20.4941 2.01474 18.288 0.524455 18.1943 0.462172L17.4994 0L17.107 0.736639C17.0898 0.76879 16.8158 1.28976 16.5846 2.07758C15.5456 1.26856 14.5343 0.898906 14.4654 0.874327L13.7407 0.615405L13.4937 1.34432C13.455 1.45859 12.5585 4.16995 13.6933 6.51594C13.9921 7.13366 14.3451 7.70834 14.7299 8.20589C14.2766 8.95106 14.0317 9.81383 14.0317 10.6913C14.0317 10.7198 14.0323 10.7482 14.033 10.7765C14.0334 10.7925 14.0338 10.8084 14.0338 10.8243C14.0338 11.4793 13.6455 11.6677 11.8466 11.8853C11.2642 11.9558 10.6619 12.0286 10.084 12.1832C8.57848 12.586 7.28887 13.4548 6.35448 14.6959C5.91991 15.2731 5.58296 15.9051 5.34635 16.5743C5.30602 16.5728 5.26564 16.5719 5.22522 16.5719C3.45007 16.5719 2.00586 18.0161 2.00586 19.7913C2.00586 21.5665 3.45007 23.0107 5.22522 23.0107C5.28104 23.0107 5.33676 23.0088 5.39238 23.006C5.64201 23.5626 5.99572 24.0749 6.44356 24.5191C7.39011 25.458 8.64576 25.9837 9.97918 25.9993L20.6648 26C22.0523 26 23.1811 24.8712 23.1811 23.4837C23.1811 22.5216 22.6405 21.67 21.8405 21.2315ZM3.52002 19.7913C3.52002 18.9306 4.16112 18.2172 4.99072 18.1026C4.95751 18.3849 4.9405 18.6711 4.9405 18.9603L4.95928 20.9864C4.95978 21.152 4.96836 21.3165 4.98482 21.4793C4.15809 21.362 3.52002 20.6499 3.52002 19.7913ZM19.6406 4.82088C19.734 5.19089 19.775 5.58745 19.7641 6.00602C19.522 5.95852 19.2786 5.92763 19.0367 5.91648C19.0339 5.91633 19.031 5.91623 19.0282 5.91608C18.8775 5.36295 18.6631 4.79398 18.3958 4.24136C18.2389 3.91708 18.0524 3.61905 17.8474 3.34579C17.9067 2.96977 17.9964 2.62535 18.0887 2.3368C18.6487 2.8762 19.3683 3.7421 19.6406 4.82088ZM20.6648 24.4858H18.4852C18.6233 24.1732 18.7001 23.8276 18.7001 23.4645C18.7001 22.0664 17.5627 20.929 16.1646 20.929H15.0166C15.0164 20.9066 15.0161 20.8842 15.0156 20.8618C14.9986 20.0667 14.7885 19.277 14.4078 18.5784L13.0782 19.3029C13.3472 19.7967 13.4898 20.3321 13.5018 20.8941C13.5066 21.117 13.4902 21.341 13.4532 21.5601L13.3042 22.4431H16.1646C16.7278 22.4431 17.1859 22.9013 17.1859 23.4645C17.1859 24.0277 16.7278 24.4858 16.1647 24.4858L9.99285 24.4852C8.05639 24.4604 6.47803 22.8888 6.47349 20.9799L6.45472 18.9566C6.45628 16.4229 8.07159 14.289 10.4752 13.646C10.9499 13.519 11.4982 13.4527 12.0285 13.3885C12.8399 13.2903 13.6063 13.1976 14.2436 12.8988C15.0969 12.4987 15.548 11.7814 15.548 10.8242C15.548 10.796 15.5474 10.7677 15.5467 10.7394C15.5463 10.7234 15.5458 10.7073 15.5458 10.6912C15.5458 9.93673 15.7966 9.2277 16.2711 8.64076L16.6797 8.13528L16.2419 7.65484C15.8016 7.17167 15.3916 6.54985 15.0563 5.85657C14.5238 4.75557 14.5982 3.48413 14.7341 2.66936C15.4576 3.06885 16.5003 3.79979 17.0328 4.90063C17.3456 5.54733 17.5712 6.21305 17.6851 6.82578L17.8117 7.5061L18.5006 7.44109C18.6596 7.4261 18.8166 7.42201 18.9671 7.42892C20.7439 7.51074 22.3833 8.94132 22.4754 10.4904C22.5195 11.2312 22.0593 12.0802 21.1077 13.0136C20.4134 13.6947 20.1946 14.714 20.5223 15.7401C21.5895 19.0813 20.2163 21.1183 20.1342 21.2355L19.3093 22.334L20.6921 22.435C21.2387 22.4748 21.6669 22.9355 21.6669 23.4836C21.667 24.0362 21.2174 24.4858 20.6648 24.4858Z" fill="#555555"/>
<path d="M20.38 9.98962C20.3617 9.57944 20.0474 9.23254 19.623 9.23254C19.2269 9.23254 18.8476 9.58075 18.8659 9.98962C18.8842 10.3998 19.1985 10.7467 19.623 10.7467C20.019 10.7467 20.3984 10.3985 20.38 9.98962Z" fill="#555555"/>
</g>
<defs>
<clipPath id="clip0_365_830">
<rect width="26" height="26" fill="white"/>
</clipPath>
</defs>
</svg>
