<svg width="29" height="29" viewBox="0 0 29 29" fill="none" xmlns="http://www.w3.org/2000/svg">
<path d="M22.0935 6.51406C22.5346 6.51406 22.8921 6.15652 22.8921 5.71546C22.8921 5.27441 22.5346 4.91687 22.0935 4.91687C21.6525 4.91687 21.2949 5.27441 21.2949 5.71546C21.2949 6.15652 21.6525 6.51406 22.0935 6.51406Z" fill="#333333"/>
<path d="M27.9336 5.44926C26.7004 5.44926 25.6418 5.53604 24.6194 4.51364L23.2962 3.1905C22.697 2.59142 21.8847 2.25488 21.0374 2.25488H17.3226H17.3002C16.4514 2.25488 15.6375 2.59122 15.0363 3.19044L15.0168 3.20987L12.5243 5.70228C12.0046 6.2219 11.7127 6.92672 11.7127 7.66163V8.49816C11.7127 10.014 12.9158 11.5777 14.4153 11.8013C14.5817 11.826 14.7457 11.838 14.9071 11.838V12.0507C12.283 13.563 6.89905 16.6125 5.833 17.6706C4.93584 18.5681 4.25917 19.987 4.25917 21.4211C4.25917 22.0613 4.34289 22.7123 4.7151 23.5588L1.59719 23.5507C0.715141 23.5507 0 24.2659 0 25.1479C0 26.03 0.715141 26.7451 1.59719 26.7451H14.8912C15.6823 26.7451 16.2306 25.8957 15.8482 25.2033C15.5076 24.5869 14.9695 24.0952 14.3193 23.8131C14.6851 23.0866 14.8974 22.4854 15.8149 22.4854H17.0367V25.6803C17.0367 26.2683 17.5134 26.7451 18.1015 26.7451H22.063C22.8795 26.7451 23.4072 25.8545 22.9949 25.1494C22.5041 24.3096 21.6374 23.7165 20.6253 23.5904L20.8621 21.6961C22.1421 20.9104 23.0853 19.6049 23.3448 18.0937C23.7077 15.9791 22.8074 14.0693 21.2958 12.927V10.7732H24.4901C25.6615 10.7732 27.1129 9.95133 27.7155 8.9469C27.9695 8.52378 29.0025 6.98935 28.9999 6.51026C28.9971 5.9571 28.5544 5.44926 27.9336 5.44926ZM14.9024 10.7618C13.6006 10.7618 12.7775 9.65905 12.7775 8.52524V7.66189C12.7775 7.21927 12.9465 6.78584 13.2772 6.45529L15.7696 3.96294C16.1042 3.62846 16.5532 3.40586 17.0367 3.34656V8.64363C17.0367 9.78263 16.1195 10.7618 14.9024 10.7618ZM1.59719 25.6803C1.3037 25.6803 1.06479 25.4415 1.06479 25.1479C1.06479 24.8544 1.3037 24.6155 1.59433 24.6155C5.45034 24.6255 4.49415 24.623 5.35797 24.6252C5.75234 25.1431 5.81649 25.2307 6.42043 25.6803H1.59719ZM26.8025 8.39913C26.3704 9.1192 25.3298 9.70842 24.4902 9.70842H21.7744C21.0813 9.70842 20.4959 9.26201 20.2752 8.64363H19.1663C19.3025 9.31226 19.6955 9.88332 20.231 10.2678V13.457C21.7648 14.6164 22.6346 15.937 22.2953 17.9136C22.0258 19.4832 21.0764 20.3152 19.8691 21.0562C19.6133 23.1027 19.5359 23.7215 19.4366 24.5156C20.5105 24.6493 21.4778 24.6513 22.063 25.6804C19.8364 25.6804 20.323 25.6804 18.1015 25.6804C18.1015 23.1277 18.1015 22.9219 18.1015 20.3564H17.0367V21.4207C16.7546 21.4207 16.5302 21.4207 15.8149 21.4207C15.4863 21.4207 15.1798 21.5078 14.8892 21.6306C14.9414 20.1837 14.4179 18.7271 13.3474 17.6564L12.5945 18.4093C14.1732 19.9888 14.0765 22.2993 13.1768 23.7088L12.8576 24.3399C13.6858 24.6991 14.4797 24.9234 14.8912 25.6804H9.57993C7.22075 25.6782 5.35763 23.778 5.32962 21.4786C5.30699 20.2047 5.8849 18.8869 7.05471 18.0155C8.22665 17.1426 14.7056 13.3957 15.9719 12.666C15.9719 12.3765 15.9724 11.9178 15.9711 11.6426C17.2093 11.2027 18.1015 10.0327 18.1015 8.64363V3.31967H21.0377C21.6026 3.31967 22.1441 3.54401 22.5434 3.94338L23.8663 5.26645C24.6246 6.02471 25.6215 6.44757 26.6858 6.49522C26.7983 6.88233 27.0602 7.2017 27.4075 7.3909L26.8025 8.39913Z" fill="#333333"/>
</svg>
