<svg width="23" height="23" viewBox="0 0 23 23" fill="none" xmlns="http://www.w3.org/2000/svg">
<path d="M22.9998 16.4881C22.9935 15.7448 22.7004 15.0458 22.1747 14.5201C21.0757 13.4211 19.2874 13.4211 18.1886 14.5201L17.2968 15.4119H10.4443L9.55256 14.5201C9.02017 13.9877 8.31229 13.6945 7.5595 13.6945C7.44966 13.6945 7.34104 13.7015 7.23364 13.7138C8.46426 8.86558 12.3186 5.08477 17.2117 3.95962C18.7951 5.66349 19.7653 7.94485 19.7653 10.4489C19.7653 11.3466 19.6407 12.2351 19.3952 13.0895C19.3431 13.2707 19.4478 13.4601 19.6291 13.5122C19.6607 13.5211 19.6924 13.5255 19.7237 13.5255C19.8719 13.5255 20.0086 13.428 20.0518 13.2783C20.315 12.3625 20.4484 11.4105 20.4484 10.4489C20.4484 7.71779 19.3848 5.15022 17.4537 3.21928C15.5226 1.28817 12.9552 0.224609 10.2241 0.224609C8.10909 0.224609 6.07936 0.864922 4.35444 2.07641C4.20019 2.18468 4.16282 2.39788 4.27126 2.55212C4.3797 2.70654 4.59273 2.74374 4.74715 2.6353C6.35644 1.50523 8.25035 0.907738 10.2241 0.907738C11.0292 0.907738 11.8109 1.00846 12.5583 1.1971C10.9171 1.78617 9.39428 2.64091 8.02048 3.74764C6.37767 5.07091 5.03704 6.68002 4.0356 8.53042C2.87465 10.6754 2.22819 13.0889 2.15432 15.5391C2.01903 15.3254 1.89163 15.1069 1.77406 14.8832C1.0604 13.5262 0.683128 11.9929 0.683128 10.4489C0.683128 7.72393 1.85267 5.1225 3.89188 3.31194C4.03296 3.18665 4.04577 2.97081 3.92048 2.82973C3.79537 2.68864 3.57953 2.67583 3.43828 2.80095C1.25325 4.74119 0 7.5288 0 10.4489C0 12.1031 0.404297 13.7464 1.16937 15.2011C1.9097 16.609 2.98643 17.8433 4.28284 18.7705C4.34303 18.8137 4.41252 18.8344 4.4813 18.8344C4.58782 18.8344 4.69275 18.7847 4.75943 18.6914C4.86911 18.538 4.83366 18.3246 4.68029 18.2148C3.99331 17.7234 3.37265 17.1396 2.8378 16.4865C2.83288 16.3337 2.83025 16.1745 2.83025 16.0117C2.83025 13.5134 3.45477 11.0388 4.63643 8.85575C5.59452 7.08537 6.87725 5.54592 8.44899 4.27969C10.0067 3.02486 11.7641 2.1087 13.6734 1.55314C14.7774 1.9827 15.7823 2.61179 16.6435 3.39616C11.5797 4.72364 7.64443 8.77731 6.48542 13.9056C6.14569 14.0455 5.83387 14.2525 5.56627 14.5201C5.04055 15.0458 4.7475 15.7448 4.74118 16.4879C4.73574 17.1249 4.94105 17.7331 5.32464 18.2306C4.94105 18.7279 4.73574 19.3359 4.74118 19.973C4.7475 20.7164 5.04055 21.4151 5.56627 21.9408C6.11586 22.4904 6.8376 22.7652 7.5595 22.7652C8.28124 22.7652 9.00314 22.4904 9.55256 21.9408L10.4443 21.0492H17.2968L18.1886 21.9408C19.2876 23.0398 21.0759 23.0398 22.1747 21.9408C22.7004 21.4151 22.9935 20.7164 22.9998 19.973C23.0054 19.3361 22.7999 18.7279 22.4163 18.2306C22.7999 17.7331 23.0054 17.1251 22.9998 16.4881ZM21.7197 18.4675C22.5211 19.2996 22.5085 20.6411 21.6916 21.4579C21.2752 21.8741 20.7286 22.0824 20.1817 22.0823C19.6349 22.0823 19.0879 21.8741 18.6715 21.4579L17.6799 20.4661C17.6159 20.4021 17.5288 20.3659 17.4383 20.3659H10.3027C10.2122 20.3659 10.1253 20.4021 10.0613 20.4661L9.06947 21.4579C8.66605 21.8612 8.1298 22.0833 7.5595 22.0833C6.98903 22.0833 6.45278 21.8612 6.04936 21.4579C5.23252 20.6411 5.21988 19.2996 6.02128 18.4675C6.14868 18.3351 6.14868 18.1258 6.02128 17.9937C5.21988 17.1616 5.23252 15.82 6.04936 15.0032C6.46576 14.5868 7.01255 14.3787 7.5595 14.3787C8.10629 14.3787 8.65307 14.587 9.06947 15.0032L10.0613 15.995C10.1253 16.059 10.2122 16.095 10.3027 16.095H17.4383C17.5288 16.095 17.6157 16.059 17.6797 15.995L18.6715 15.0032C19.5042 14.1706 20.859 14.1706 21.6916 15.0032C22.5085 15.82 22.5211 17.1616 21.7197 17.9935C21.5923 18.1258 21.5923 18.3351 21.7197 18.4675Z" fill="#333333"/>
<path d="M21.0165 15.6109C21.072 15.4724 21.0332 15.3114 20.9175 15.2163C20.7972 15.1171 20.6191 15.1138 20.495 15.2078C20.2583 15.3872 20.3588 15.7743 20.6517 15.818C20.8049 15.8409 20.9567 15.7529 21.0165 15.6109Z" fill="#333333"/>
<path d="M21.6076 16.1692C21.4909 15.8925 21.0819 15.8943 20.9734 16.1771C20.9192 16.3187 20.9666 16.483 21.088 16.5737C21.2042 16.6602 21.3683 16.6636 21.487 16.5802C21.6178 16.4886 21.6669 16.317 21.6076 16.1692Z" fill="#333333"/>
<path d="M6.68898 20.506C6.66336 20.3688 6.54948 20.2603 6.41296 20.2363C6.27591 20.2121 6.13272 20.2773 6.0613 20.397C5.98602 20.5233 6.00094 20.6897 6.09921 20.7994C6.19502 20.9068 6.35172 20.9431 6.48508 20.8882C6.63265 20.8273 6.7218 20.6632 6.68898 20.506Z" fill="#333333"/>
<path d="M7.35187 21.088C7.29642 20.9566 7.16236 20.8702 7.01899 20.8781C6.88002 20.8855 6.75543 20.9788 6.71209 21.1117C6.66839 21.2452 6.71191 21.3951 6.82106 21.4839C6.93547 21.5769 7.1027 21.5851 7.22553 21.503C7.36047 21.4128 7.41171 21.2377 7.35187 21.088Z" fill="#333333"/>
<path d="M20.5613 16.2149C20.5071 16.0866 20.3781 16.0011 20.2386 16.0041C20.0991 16.0071 19.9708 16.0985 19.9241 16.2303C19.8183 16.5298 20.1577 16.8024 20.4262 16.6351C20.5672 16.5474 20.6225 16.368 20.5613 16.2149Z" fill="#333333"/>
</svg>
