<svg width="55" height="55" viewBox="0 0 55 55" fill="none" xmlns="http://www.w3.org/2000/svg">
<path d="M49.5882 40.5438C48.1944 38.6804 46.2785 37.3479 44.0469 36.6893L38.5146 34.9644C38.5142 34.9643 38.5138 34.9641 38.5134 34.964L34.5561 33.7302C34.2023 33.6196 33.8282 33.6332 33.4911 33.7567C33.211 33.5072 33.0422 33.1456 33.0422 32.7608V32.5133L39.1535 30.9243C41.2374 30.3824 42.6929 28.5002 42.6929 26.3468V23.3274C43.5544 22.9861 44.1657 22.1452 44.1657 21.1637V17.2265C44.1657 16.2391 43.56 15.4024 42.6929 15.0639V14.2755C42.6929 13.6681 42.6543 13.0565 42.5782 12.4575C42.522 12.0158 42.1181 11.7042 41.6766 11.7593C41.2348 11.8155 40.9222 12.2192 40.9783 12.661C41.0459 13.1927 41.0802 13.7358 41.0802 14.2755V15.7085V15.8034C40.6487 15.6996 40.0925 15.53 39.4965 15.258C39.4681 15.2451 39.4402 15.2319 39.412 15.2188C38.2733 14.684 37.0049 13.7719 36.1821 12.2262C36.1697 12.2028 36.1573 12.1793 36.1452 12.1557C36.1144 12.096 36.0842 12.0357 36.0547 11.9741C36.0319 11.9264 36.0101 11.878 35.9883 11.8295C35.9681 11.7847 35.9476 11.7405 35.9281 11.6948C35.8862 11.596 35.8457 11.496 35.8078 11.394C35.7176 11.1515 35.5165 10.967 35.267 10.8981C35.2046 10.8808 35.1411 10.8712 35.0778 10.8692C35.0658 10.8688 35.0539 10.8699 35.042 10.8701C35.0223 10.8704 35.0027 10.87 34.9831 10.8718C34.8442 10.8837 34.71 10.9328 34.5934 11.0137C34.5782 11.0242 34.5627 11.0341 34.5481 11.0457C34.5453 11.0479 34.5339 11.057 34.5158 11.071C34.5138 11.0726 34.5124 11.0737 34.5101 11.0754C34.5034 11.0807 34.4945 11.0876 34.486 11.0941C34.4798 11.0989 34.4739 11.1035 34.4668 11.1088C34.4595 11.1144 34.4508 11.1211 34.4427 11.1274C34.4308 11.1366 34.4184 11.146 34.4045 11.1565C34.3983 11.1613 34.3914 11.1665 34.3848 11.1716C34.3664 11.1854 34.3469 11.2003 34.3255 11.2164C34.3211 11.2197 34.3165 11.2231 34.3119 11.2266C32.8198 12.3458 24.517 18.235 16.5491 17.111C16.535 17.109 16.5209 17.1069 16.5068 17.1048C16.3788 17.0863 16.2507 17.0657 16.1229 17.0436C16.0864 17.0373 16.05 17.0307 16.0134 17.024C15.903 17.0039 15.7928 16.9824 15.6826 16.9595C15.6471 16.9521 15.6115 16.945 15.5761 16.9372C15.4488 16.9097 15.3218 16.8802 15.1948 16.8487C15.1432 16.8359 15.0921 16.822 15.0407 16.8085C14.9621 16.788 14.8837 16.7669 14.8053 16.7448C14.7433 16.7274 14.6813 16.7097 14.6196 16.6914C14.5339 16.6658 14.4483 16.6389 14.3628 16.6115C14.2861 16.5869 14.2097 16.5616 14.1336 16.5356C14.0476 16.5063 13.9618 16.4763 13.8762 16.4449C13.8252 16.4262 13.7742 16.4073 13.7235 16.388C13.6081 16.3441 13.4928 16.2988 13.3778 16.2511C13.3673 16.2467 13.3566 16.2428 13.3461 16.2384V15.8408V14.2754C13.3461 7.29321 19.0265 1.61273 26.0088 1.61273H28.4174C33.4809 1.61273 38.0479 4.61786 40.052 9.26881C40.2283 9.67787 40.7028 9.86661 41.1118 9.69022C41.5207 9.51394 41.7095 9.03957 41.5332 8.63061C39.2739 3.38777 34.1256 0 28.4174 0H26.0089C18.1373 0 11.7334 6.40386 11.7334 14.2754V15.3939C11.1766 15.829 10.8364 16.502 10.8364 17.2264V21.1635C10.8364 21.9078 11.1881 22.571 11.7334 22.9972V26.3152C11.7334 28.4909 13.2078 30.378 15.3188 30.9044L21.9598 32.5604V32.7608C21.9598 33.1457 21.791 33.5074 21.5108 33.757C21.1737 33.6335 20.7997 33.62 20.4461 33.7302L16.4887 34.9641C16.4883 34.9642 16.4878 34.9644 16.4874 34.9645L10.9554 36.6894C7.88826 37.5944 5.40638 39.7994 4.14546 42.74C4.04857 42.9661 3.95822 43.1986 3.87712 43.4312C3.73038 43.8517 3.95221 44.3115 4.37277 44.4582C4.79332 44.6047 5.25298 44.3832 5.39983 43.9626C5.46879 43.765 5.54549 43.5675 5.62778 43.3754C6.69942 40.876 8.80951 39.0023 11.4169 38.2345C11.4209 38.2333 11.425 38.2322 11.4291 38.2309L16.4678 36.6598L20.6794 41.4664C21.2922 42.1656 22.1593 42.5457 23.0526 42.5457C23.3943 42.5456 23.7399 42.4901 24.0764 42.3754L27.501 41.2088L30.5803 42.2578C30.975 42.3922 31.38 42.4574 31.7806 42.4574C32.8279 42.4573 33.8446 42.0117 34.5628 41.1921L38.5341 36.6598L43.5728 38.2309C43.5769 38.2322 43.581 38.2333 43.585 38.2345C45.4825 38.7932 47.1119 39.9259 48.2967 41.5098C49.4815 43.0938 50.1078 44.9766 50.1078 46.9547V53.2816C50.1078 53.3398 50.0604 53.3872 50.0023 53.3872H45.6465V46.0154C45.6465 45.5701 45.2854 45.209 44.8401 45.209C44.3947 45.209 44.0336 45.57 44.0336 46.0154V53.3872H10.9683V46.0154C10.9683 45.5701 10.6072 45.209 10.1618 45.209C9.71648 45.209 9.35543 45.57 9.35543 46.0154V53.3872H4.99957C4.94135 53.3872 4.89408 53.3398 4.89408 53.2816V47.4743C4.89408 47.029 4.53304 46.6679 4.08767 46.6679C3.6423 46.6679 3.28125 47.0289 3.28125 47.4743V53.2816C3.28125 54.229 4.05211 55 4.99957 55H50.0023C50.9498 55 51.7207 54.2291 51.7207 53.2816V46.9547C51.7207 44.6258 50.9832 42.4089 49.5882 40.5438ZM38.7475 29.3633L34.8748 30.3703C34.9245 30.3344 34.9722 30.2963 35.0211 30.2597C35.0413 30.2447 35.0613 30.2293 35.0814 30.2142C35.2193 30.1102 35.3549 30.0035 35.4881 29.8942C35.5055 29.8799 35.5229 29.8656 35.5402 29.8512C35.6824 29.7331 35.822 29.6123 35.9587 29.4883C35.9653 29.4823 35.972 29.4765 35.9786 29.4705C36.1972 29.2715 36.4085 29.0653 36.6124 28.852C36.6276 28.8361 36.6426 28.8198 36.6576 28.8039C36.7585 28.6973 36.8578 28.5892 36.955 28.4792L37.8651 28.3231C39.3644 28.066 40.5589 27.0442 41.0799 25.6976V26.3467H41.08C41.0801 27.7657 40.1209 29.0062 38.7475 29.3633ZM39.9945 21.8468C40.0304 21.5812 40.0583 21.3131 40.0774 21.0425C40.0793 21.0151 40.0808 20.9877 40.0827 20.9604C40.0894 20.8547 40.0949 20.7488 40.099 20.6424C40.1004 20.6082 40.1019 20.574 40.1029 20.5397C40.1069 20.4087 40.1096 20.2774 40.1096 20.1454V17.2147C41.0502 17.4974 41.7353 17.56 41.8207 17.5668C41.8212 17.5668 41.8223 17.5669 41.8226 17.5669C41.8229 17.5669 41.8232 17.5669 41.8235 17.5669C42.0474 17.5846 42.2686 17.5079 42.4336 17.3553C42.4552 17.3353 42.4755 17.3142 42.4946 17.2923C42.5014 17.2845 42.5072 17.2762 42.5136 17.2682C42.5254 17.2535 42.5374 17.2388 42.5481 17.2233C42.5495 17.2213 42.5513 17.2193 42.5527 17.2173C42.5527 17.2202 42.5527 17.2233 42.5527 17.2263V21.1634C42.5527 21.5455 42.2509 21.8576 41.8731 21.8756C41.8687 21.8758 41.8643 21.8752 41.8597 21.8754C41.8471 21.8759 41.8345 21.8765 41.8204 21.8775H39.9905C39.9921 21.8674 39.9931 21.8571 39.9945 21.8468ZM38.715 25.9057C38.7712 25.7966 38.8259 25.6864 38.8791 25.5755C38.906 25.5193 38.9322 25.4628 38.9583 25.4063C39.0079 25.2988 39.0563 25.1905 39.103 25.0813C39.127 25.0249 39.1502 24.9681 39.1735 24.9113C39.214 24.8125 39.2533 24.713 39.2914 24.613C39.3089 24.5668 39.327 24.5209 39.3441 24.4745C39.3909 24.3471 39.4348 24.2185 39.4774 24.0893C39.4933 24.0411 39.5092 23.9929 39.5246 23.9445C39.5667 23.8115 39.6067 23.6775 39.6445 23.5427C39.6494 23.5252 39.6552 23.5081 39.6601 23.4906H39.7518V24.1732C39.7518 25.1377 39.2266 25.9901 38.4258 26.4383C38.4463 26.4028 38.4649 26.3663 38.4851 26.3308C38.5315 26.2486 38.5771 26.166 38.6217 26.0827C38.653 26.0238 38.6843 25.965 38.715 25.9057ZM12.8707 21.8141C12.8701 21.8138 12.8693 21.8137 12.8686 21.8133C12.6215 21.7009 12.4491 21.4523 12.4491 21.1637V17.608C12.4727 17.6184 12.4967 17.6283 12.5203 17.6386C12.5574 17.6548 12.5946 17.6707 12.6319 17.6865C12.712 17.7207 12.7925 17.7541 12.8734 17.7867C12.9087 17.801 12.9439 17.8154 12.9793 17.8294C13.088 17.8724 13.1973 17.9141 13.3073 17.9545C13.3118 17.9561 13.3162 17.958 13.3207 17.9596C13.8317 18.1464 14.3565 18.3054 14.8922 18.4352V20.1455C14.8922 20.2775 14.8949 20.4088 14.8989 20.5399C14.9 20.5741 14.9015 20.6083 14.9028 20.6425C14.907 20.7489 14.9124 20.8548 14.9191 20.9605C14.9209 20.9879 14.9224 21.0153 14.9244 21.0426C14.9435 21.3131 14.9713 21.5812 15.0073 21.8469C15.0087 21.8572 15.0096 21.8675 15.0111 21.8777H13.163C13.0627 21.8776 12.9643 21.8562 12.8707 21.8141ZM15.7088 29.3394C14.3177 28.9927 13.3461 27.749 13.3461 26.3152V23.4904H15.3421C15.3468 23.5076 15.3526 23.5244 15.3573 23.5415C15.396 23.6797 15.437 23.8168 15.4803 23.953C15.4955 24.0009 15.5111 24.0486 15.5269 24.0962C15.5705 24.2282 15.6158 24.3595 15.6637 24.4894C15.6813 24.5372 15.6999 24.5846 15.718 24.6322C15.7591 24.7396 15.8015 24.8465 15.8454 24.9525C15.8714 25.0155 15.8981 25.0781 15.925 25.1406C15.9687 25.2412 16.0134 25.3411 16.0595 25.4402C16.0843 25.4937 16.1088 25.5473 16.1345 25.6005C16.1893 25.7143 16.2462 25.8267 16.3043 25.9385C16.335 25.9974 16.3659 26.0563 16.3975 26.1147C16.4551 26.2215 16.514 26.3274 16.5746 26.4323C16.6102 26.4938 16.6467 26.5548 16.6832 26.6158C16.7286 26.6913 16.7749 26.7663 16.8217 26.8407C16.8773 26.9293 16.9342 27.0171 16.9921 27.1042C17.0311 27.1629 17.0705 27.2212 17.1104 27.2791C17.1804 27.3807 17.2519 27.4811 17.3248 27.5807C17.3611 27.6302 17.3975 27.6798 17.4344 27.7288C17.5194 27.8413 17.6066 27.9522 17.6953 28.0619C17.7248 28.0984 17.7539 28.1351 17.7839 28.1713C17.8438 28.2438 17.9045 28.3155 17.966 28.3866C17.9806 28.4036 17.9956 28.42 18.0103 28.4369C18.1241 28.5671 18.2404 28.695 18.3595 28.8205C18.3795 28.8415 18.3997 28.8623 18.4199 28.8832C18.5365 29.0044 18.6555 29.1233 18.7769 29.2399C18.7961 29.2583 18.8154 29.2768 18.8348 29.2952C18.9612 29.4151 19.0902 29.5323 19.2217 29.647C19.2372 29.6604 19.2524 29.6741 19.2679 29.6874C19.492 29.881 19.7228 30.0671 19.9608 30.2451C19.9645 30.248 19.9685 30.2507 19.9723 30.2536C20.0743 30.3298 20.1759 30.4064 20.2804 30.4795L15.7088 29.3394ZM17.1777 23.9335C17.1748 23.9255 17.1718 23.9175 17.1689 23.9095C17.1401 23.8308 17.1122 23.7518 17.0852 23.6724C17.0835 23.6672 17.0818 23.6621 17.08 23.6569C16.9998 23.4194 16.9278 23.1782 16.8637 22.9338C16.8592 22.9166 16.8544 22.8995 16.8499 22.8823C16.8349 22.8236 16.8208 22.7646 16.8067 22.7055C16.7967 22.6638 16.7867 22.6222 16.7772 22.5803C16.7653 22.528 16.754 22.4755 16.7428 22.4229C16.7337 22.3797 16.7248 22.3365 16.7162 22.2931C16.7072 22.2477 16.6985 22.2022 16.69 22.1566C16.6801 22.1028 16.6706 22.049 16.6614 21.9951C16.6551 21.9576 16.6487 21.92 16.6427 21.8824C16.6327 21.8198 16.6235 21.7569 16.6146 21.6941C16.6102 21.6634 16.6058 21.6327 16.6016 21.6018C16.5923 21.5322 16.5841 21.4625 16.5761 21.3927C16.5732 21.367 16.57 21.3413 16.5673 21.3155C16.5595 21.2415 16.5527 21.1674 16.5463 21.0933C16.5443 21.0705 16.542 21.0479 16.5401 21.0251C16.5341 20.9491 16.5292 20.8731 16.5248 20.797C16.5235 20.7753 16.5218 20.7537 16.5206 20.7319C16.5165 20.6545 16.5137 20.577 16.5111 20.4996C16.5105 20.4789 16.5093 20.4585 16.5088 20.4379C16.5062 20.3404 16.5048 20.2427 16.5048 20.1451V18.7333C17.7041 18.8875 18.9605 18.905 20.2616 18.7887C20.304 18.7849 20.3467 18.7802 20.3893 18.7762C20.4948 18.7661 20.6005 18.7554 20.7065 18.7434C20.8003 18.7331 20.8943 18.7221 20.9885 18.7103C21.015 18.707 21.0417 18.7034 21.0683 18.6998C23.2575 18.4188 25.5605 17.7689 27.9398 16.7479C31.0541 15.4113 33.5087 13.7942 34.7242 12.9256C35.6867 14.7851 37.1458 15.9043 38.4922 16.5759C38.4942 16.6608 38.4966 16.7462 38.4966 16.8286V20.1454C38.4966 20.243 38.4952 20.3406 38.4926 20.4382C38.4921 20.4589 38.4909 20.4793 38.4902 20.4999C38.4878 20.5773 38.485 20.6549 38.4808 20.7322C38.4796 20.7541 38.4779 20.7756 38.4766 20.7973C38.4721 20.8734 38.4672 20.9495 38.4612 21.0254C38.4594 21.0482 38.4571 21.0708 38.4551 21.0936C38.4488 21.1677 38.442 21.2419 38.4341 21.3159C38.4314 21.3417 38.4281 21.3672 38.4252 21.393C38.4173 21.4628 38.409 21.5325 38.3998 21.6021C38.3957 21.633 38.3912 21.6637 38.3868 21.6944C38.3779 21.7573 38.3686 21.8201 38.3586 21.8827C38.3526 21.9203 38.3463 21.9579 38.3399 21.9954C38.3308 22.0494 38.3214 22.1032 38.3114 22.1569C38.3029 22.2025 38.2942 22.248 38.2852 22.2934C38.2766 22.3367 38.2677 22.38 38.2585 22.4232C38.2473 22.4758 38.2361 22.5282 38.2241 22.5806C38.2147 22.6226 38.2046 22.6643 38.1946 22.7061C38.1805 22.7649 38.1666 22.8238 38.1515 22.8822C38.1469 22.9002 38.1419 22.9181 38.1371 22.9361C38.0734 23.179 38.0018 23.4187 37.9221 23.6547C37.9199 23.6609 37.918 23.6671 37.9158 23.6734C37.8891 23.752 37.8614 23.8303 37.833 23.9081C37.8298 23.917 37.8265 23.926 37.8232 23.9349C37.4132 25.0485 36.8274 26.0776 36.1003 26.9894L34.2892 27.3C34.1201 27.0028 33.8887 26.7424 33.6012 26.5391C33.0853 26.174 32.4581 26.0317 31.8354 26.139L29.2066 26.5899C27.9211 26.8103 27.0546 28.0354 27.275 29.321C27.4127 30.1236 27.9406 30.7696 28.6439 31.082C28.2679 31.121 27.8865 31.1413 27.5004 31.1413C25.9029 31.1413 24.3841 30.7986 23.0132 30.1832C22.9828 30.1696 22.9525 30.1556 22.9222 30.1417C20.2753 28.9244 18.1909 26.6859 17.1777 23.9335ZM32.8503 28.9048C32.7341 29.069 32.5612 29.178 32.363 29.212L29.7337 29.6629C29.6912 29.6702 29.6479 29.674 29.605 29.674C29.2384 29.674 28.9272 29.4109 28.865 29.0483C28.7948 28.6393 29.0705 28.2495 29.4796 28.1793L32.1086 27.7284C32.1517 27.7211 32.1948 27.7174 32.2375 27.7174C32.3917 27.7174 32.5418 27.7648 32.6703 27.8556C32.8345 27.9716 32.9436 28.1448 32.9775 28.3429C33.0116 28.5411 32.9664 28.7406 32.8503 28.9048ZM23.5564 40.8488C22.9604 41.0517 22.3073 40.8769 21.8924 40.4036L18.152 36.1348L20.9262 35.2698C20.9421 35.2648 20.9595 35.2689 20.9717 35.2804L25.9773 40.0242L23.5564 40.8488ZM22.7779 34.7701C23.2781 34.2331 23.5724 33.517 23.5724 32.7607V32.1296C23.6248 32.1468 23.678 32.1616 23.7307 32.1782C23.7572 32.1866 23.7839 32.1945 23.8105 32.2027C23.9701 32.2517 24.1306 32.2973 24.2919 32.3397C24.3209 32.3474 24.3498 32.3552 24.3789 32.3626C24.4689 32.3856 24.5589 32.4078 24.6492 32.4288C24.6726 32.4343 24.6962 32.4391 24.7197 32.4444C24.875 32.4794 25.0309 32.5115 25.1875 32.5406C25.2419 32.5507 25.2963 32.5605 25.3509 32.5699C25.4267 32.5829 25.5026 32.5962 25.5787 32.6078C25.6934 32.6254 25.8086 32.6412 25.9242 32.6557C25.9848 32.6632 26.0455 32.6698 26.1062 32.6765C26.2039 32.6874 26.302 32.6969 26.4004 32.7055C26.4418 32.7091 26.4829 32.7134 26.5244 32.7166C26.6624 32.7272 26.8012 32.7348 26.9403 32.741C26.9795 32.7427 27.0188 32.7441 27.0581 32.7455C27.205 32.7505 27.3525 32.7541 27.5007 32.7541C27.649 32.7541 27.7964 32.7505 27.9434 32.7455C27.9827 32.7441 28.0219 32.7427 28.0612 32.741C28.2004 32.7348 28.3392 32.7271 28.4771 32.7166C28.5185 32.7135 28.5597 32.7091 28.6011 32.7055C28.6995 32.6969 28.7975 32.6874 28.8953 32.6765C28.956 32.6698 29.0167 32.6632 29.0773 32.6557C29.1929 32.6412 29.3081 32.6254 29.4227 32.6078C29.4989 32.5962 29.5747 32.5829 29.6506 32.5699C29.7051 32.5605 29.7596 32.5507 29.814 32.5406C29.9706 32.5115 30.1266 32.4794 30.2818 32.4444C30.3052 32.4391 30.3288 32.4343 30.3523 32.4288C30.4426 32.4078 30.5327 32.3856 30.6225 32.3626C30.6516 32.3552 30.6805 32.3474 30.7095 32.3397C30.8709 32.2973 31.0313 32.2515 31.191 32.2027C31.2177 32.1945 31.2443 32.1866 31.2708 32.1782C31.3235 32.1616 31.3765 32.1469 31.4291 32.1296V32.7607C31.4291 33.5171 31.7234 34.2332 32.2236 34.7701L27.5008 39.2458L22.7779 34.7701ZM33.3498 40.1293C32.7888 40.7694 31.9057 41.0056 31.1003 40.7312L29.0245 40.0242L34.0301 35.2804C34.0422 35.269 34.0596 35.2647 34.0757 35.2699L36.8498 36.1349L33.3498 40.1293Z" fill="#F8FBFF"/>
<path d="M20.4508 44.792H14.3761C13.5947 44.792 12.959 45.4277 12.959 46.2092V48.8998C12.959 49.6812 13.5947 50.3169 14.3761 50.3169H20.4508C21.2322 50.3169 21.8679 49.6813 21.8679 48.8998V46.2092C21.8679 45.4278 21.2321 44.792 20.4508 44.792ZM20.255 48.7041H14.5716V46.4048H20.255V48.7041Z" fill="#F8FBFF"/>
</svg>
