<svg width="56" height="56" viewBox="0 0 56 56" fill="none" xmlns="http://www.w3.org/2000/svg">
<g clip-path="url(#clip0_365_167)">
<path d="M55.4326 12.111L33.6225 0.134903C33.2948 -0.0449677 32.8975 -0.0449677 32.5698 0.134903L24.3491 4.64876C24.1757 4.69448 24.0137 4.78163 23.8796 4.90682L10.7601 12.111C10.4102 12.3029 10.1928 12.6703 10.1928 13.0698V27.5543C7.97963 28.2464 5.95149 29.4671 4.26515 31.1538C-0.130362 35.5489 -1.25103 42.2524 1.47651 47.8344C1.7414 48.377 2.39637 48.6022 2.93897 48.3368C3.482 48.0715 3.70674 47.4165 3.44184 46.8739C1.12446 42.1311 2.07679 36.4355 5.81178 32.7005C8.14753 30.3647 11.2528 29.0783 14.5558 29.0783C17.8588 29.0783 20.9641 30.3647 23.2998 32.7005C25.6351 35.0358 26.9216 38.141 26.9216 41.4441C26.9216 44.7471 25.6351 47.8523 23.2994 50.1881C19.5644 53.9231 13.8688 54.8754 9.12593 52.558C8.58332 52.2927 7.92836 52.5179 7.66346 53.0605C7.39814 53.6035 7.62288 54.2585 8.1659 54.5234C10.1992 55.5171 12.3807 55.9999 14.5464 55.9999C18.3245 55.9995 22.0523 54.5289 24.8465 51.7347C26.1278 50.4534 27.1403 48.9751 27.8568 47.3683L32.5698 49.9561C32.7338 50.0463 32.915 50.0911 33.0961 50.0911C33.2773 50.0911 33.4589 50.0463 33.6225 49.9561L55.4326 37.9804C55.7825 37.7881 56 37.4207 56 37.0216V29.4205C56 28.8164 55.5103 28.3268 54.9062 28.3268C54.3021 28.3268 53.8125 28.8164 53.8125 29.4205V36.3744L34.1933 47.1474V25.6911L40.6682 22.1355V27.7718C40.6682 28.1588 40.8725 28.5169 41.2053 28.7134C41.377 28.8147 41.5693 28.8655 41.762 28.8655C41.9431 28.8655 42.1247 28.8207 42.2892 28.7301L46.9628 26.1576C47.3123 25.9654 47.5289 25.5984 47.5289 25.1997V18.3681L53.8125 14.9181V20.6709C53.8125 21.2751 54.3021 21.7647 54.9062 21.7647C55.5103 21.7647 56 21.2751 56 20.6709V13.0698C56 12.6707 55.7825 12.3029 55.4326 12.111ZM33.0961 2.3412L52.6337 13.0698L46.4707 16.454L26.9331 5.72542L33.0961 2.3412ZM33.0961 23.7979L13.5586 13.0698L19.9476 9.56124L39.4856 20.2894L33.0961 23.7979ZM41.7577 19.0418L22.2202 8.31368L24.6606 6.97341L44.1986 17.7016L41.7577 19.0418ZM24.8465 31.1538C22.0975 28.4049 18.4429 26.8912 14.5558 26.8912C13.8205 26.8912 13.0942 26.9455 12.3803 27.0519V14.9181L32.0062 25.6949V47.1512L28.5998 45.2807C28.9352 44.046 29.1087 42.7583 29.1087 41.4441C29.1087 37.557 27.5949 33.9023 24.8465 31.1538ZM45.3419 24.5533L42.8557 25.9218V20.9345L45.3419 19.5695V24.5533Z" fill="#F8FBFF"/>
<path d="M54.9063 23.9468C54.6187 23.9468 54.3363 24.0638 54.1329 24.2672C53.9296 24.4706 53.8125 24.7526 53.8125 25.0405C53.8125 25.3281 53.9296 25.61 54.1329 25.8134C54.3363 26.0172 54.6187 26.1339 54.9063 26.1339C55.1938 26.1339 55.4762 26.0172 55.6796 25.8134C55.8829 25.61 56 25.3281 56 25.0405C56 24.7526 55.8829 24.4706 55.6796 24.2672C55.4762 24.0638 55.1938 23.9468 54.9063 23.9468Z" fill="#F8FBFF"/>
<path d="M10.8786 42.5378C11.1584 42.5378 11.4387 42.431 11.6519 42.2178C12.0791 41.7905 12.0791 41.098 11.6519 40.6707L10.8944 39.9128H17.3586C18.9266 39.9128 20.2024 41.1885 20.2024 42.7565C20.2024 44.3245 18.9266 45.6003 17.3586 45.6003H13.5284C12.9242 45.6003 12.4346 46.0899 12.4346 46.694C12.4346 47.2977 12.9242 47.7874 13.5284 47.7874H17.3586C20.1327 47.7874 22.3899 45.5306 22.3899 42.7565C22.3899 39.9824 20.1327 37.7257 17.3586 37.7257H10.8944L11.6519 36.9678C12.0791 36.5405 12.0791 35.8479 11.6519 35.4207C11.2251 34.9939 10.5325 34.9939 10.1053 35.4207L7.48027 38.0457C7.05345 38.473 7.05345 39.1655 7.48027 39.5928L10.1053 42.2173C10.3189 42.431 10.5987 42.5378 10.8786 42.5378Z" fill="#F8FBFF"/>
<path d="M5.03974 52.0571C4.72871 52.0571 4.41981 51.9246 4.20405 51.6679L4.20191 51.6653C3.81312 51.203 3.87294 50.5134 4.33522 50.1246C4.7975 49.7354 5.4875 49.7952 5.87629 50.2575C6.26466 50.7202 6.20613 51.4111 5.74385 51.7999C5.53834 51.9725 5.2884 52.0571 5.03974 52.0571Z" fill="#F8FBFF"/>
</g>
<defs>
<clipPath id="clip0_365_167">
<rect width="56" height="56" fill="white"/>
</clipPath>
</defs>
</svg>
