<svg width="55" height="55" viewBox="0 0 55 55" fill="none" xmlns="http://www.w3.org/2000/svg">
<path d="M51.9466 14.6995L27.8841 2.66827C27.7649 2.60867 27.6334 2.57764 27.5 2.57764C27.3667 2.57764 27.2351 2.60867 27.1159 2.66827L3.05337 14.6995C2.91052 14.7709 2.79038 14.8807 2.70643 15.0165C2.62249 15.1524 2.57806 15.309 2.57814 15.4687V39.5312C2.57726 39.6916 2.62131 39.8491 2.7053 39.9858C2.78929 40.1224 2.90986 40.2329 3.05337 40.3046L27.1159 52.3358C27.2351 52.3955 27.3667 52.4265 27.5 52.4265C27.6334 52.4265 27.7649 52.3955 27.8841 52.3358L51.9466 40.3046C52.0902 40.2329 52.2107 40.1224 52.2947 39.9858C52.3787 39.8491 52.4228 39.6916 52.4219 39.5312V15.4687C52.422 15.309 52.3775 15.1524 52.2936 15.0165C52.2096 14.8807 52.0895 14.7709 51.9466 14.6995ZM27.5 26.5391L20.7823 23.1798L42.2546 11.7733L49.6452 15.4687L27.5 26.5391ZM13.9073 19.7423L35.3796 8.33585L40.364 10.828L18.8942 22.2362L13.9073 19.7423ZM12.8906 21.156L18.0469 23.7341V30.5816L16.0763 28.6111C15.9152 28.4499 15.6967 28.3593 15.4688 28.3593H12.8906V21.156ZM27.5 4.39819L33.4916 7.39054L12.0192 18.7987L5.35908 15.4687L27.5 4.39819ZM4.29689 16.8591L11.1719 20.2966V29.2187C11.1719 29.4466 11.2624 29.6652 11.4236 29.8263C11.5848 29.9875 11.8033 30.078 12.0313 30.078H15.113L18.2987 33.2637C18.4189 33.3839 18.572 33.4657 18.7387 33.4988C18.9053 33.532 19.0781 33.515 19.2351 33.4499C19.3921 33.3849 19.5263 33.2748 19.6207 33.1335C19.7152 32.9922 19.7656 32.8261 19.7656 32.6562V24.5935L26.6406 28.031V50.1719L4.29689 39.0001V16.8591ZM28.3594 50.1719V28.031L50.7031 16.8591V39.0001L28.3594 50.1719Z" fill="#F8FBFF"/>
</svg>
