<svg width="52" height="52" viewBox="0 0 52 52" fill="none" xmlns="http://www.w3.org/2000/svg">
<g clip-path="url(#clip0_365_154)">
<path d="M47.3673 8.97925C40.2128 7.0189 33.0162 3.96644 26.5555 0.151963C26.2123 -0.0506542 25.7865 -0.0506542 25.4434 0.151963C18.7964 4.07603 11.9886 6.96334 4.63095 8.97925C4.15564 9.10935 3.82617 9.5414 3.82617 10.0343V21.2108C3.82617 32.7202 9.13575 40.3385 13.5901 44.7028C18.3854 49.4016 23.9714 52 25.9995 52C28.0273 52 33.6133 49.4016 38.4086 44.7028C42.8629 40.3386 48.1721 32.7203 48.1721 21.2108V10.0342C48.1721 9.5414 47.8427 9.10935 47.3673 8.97925ZM45.9845 21.2107C45.9845 31.9604 41.0322 39.0692 36.8775 43.14C32.1618 47.7606 27.12 49.8122 25.9995 49.8122C24.8789 49.8122 19.8368 47.7606 15.121 43.14C10.9664 39.0691 6.01393 31.9604 6.01393 21.2107V10.8646C13.05 8.86682 19.6026 6.07883 25.9997 2.36135C32.237 5.98022 39.1165 8.90684 45.9845 10.8641V21.2107Z" fill="#F8FBFF"/>
<path d="M16.3046 10.7421C16.0832 10.1799 15.4481 9.90378 14.8859 10.1253C12.9318 10.8952 10.9262 11.6039 8.92469 12.2318C8.46858 12.375 8.1582 12.7975 8.1582 13.2754V17.4995C8.1582 18.1036 8.64804 18.5934 9.25203 18.5934C9.85602 18.5934 10.3459 18.1036 10.3459 17.4995V14.0748C12.1414 13.4939 13.935 12.8513 15.6878 12.1606C16.25 11.9393 16.5261 11.3042 16.3046 10.7421Z" fill="#F8FBFF"/>
<path d="M18.3815 10.9498C18.5282 10.9498 18.6772 10.9203 18.8201 10.8579L18.8402 10.8492C19.3937 10.6067 19.6429 9.96245 19.4004 9.40924C19.1576 8.85583 18.5098 8.60548 17.957 8.84781L17.9393 8.85542C17.3856 9.09724 17.1355 9.74094 17.3773 10.2945C17.5568 10.7054 17.9595 10.9498 18.3815 10.9498Z" fill="#F8FBFF"/>
<path d="M39.0323 35.271C38.5268 34.9406 37.849 35.0827 37.5182 35.5884C36.6168 36.968 35.5594 38.2891 34.3748 39.5147C33.4006 40.5224 32.3449 41.4616 31.2372 42.3061C30.7569 42.6724 30.6645 43.3587 31.0306 43.8392C31.246 44.1215 31.5717 44.2699 31.9012 44.2699C32.1326 44.2699 32.3657 44.1969 32.5637 44.0458C33.7586 43.1347 34.8971 42.1218 35.9474 41.0353C37.2283 39.7105 38.3729 38.2805 39.3497 36.785C39.6803 36.2792 39.538 35.6014 39.0323 35.271Z" fill="#F8FBFF"/>
<path d="M28.6967 44.0216L28.6339 44.0586C28.1112 44.3613 27.9326 45.0304 28.2352 45.5532C28.438 45.9035 28.8052 46.0991 29.1829 46.0991C29.3687 46.0991 29.5574 46.0517 29.7298 45.9517L29.8022 45.9091C30.3235 45.6038 30.4986 44.9338 30.1933 44.4125C29.8878 43.8914 29.2177 43.7166 28.6967 44.0216Z" fill="#F8FBFF"/>
<path d="M18.5428 23.7677C17.8712 23.096 16.9779 22.7263 16.0279 22.7263C15.0779 22.7263 14.1846 23.0961 13.5126 23.7677C12.126 25.1547 12.126 27.4114 13.5126 28.7982L19.9716 35.257C20.6433 35.9285 21.5366 36.2983 22.4867 36.2983C23.4368 36.2983 24.33 35.9285 25.0019 35.2568L38.4854 21.7732C39.8719 20.3859 39.8719 18.1295 38.4852 16.7431C37.8134 16.0713 36.9202 15.7017 35.97 15.7017C35.0199 15.7017 34.1266 16.0714 33.4548 16.7431L22.4866 27.7113L18.5428 23.7677ZM35.0018 18.2901C35.2603 18.0316 35.6043 17.8893 35.9701 17.8893C36.3361 17.8893 36.6798 18.0316 36.9385 18.2901C37.4722 18.8238 37.4722 19.6926 36.9383 20.2265L23.455 33.7099C23.1965 33.9684 22.8525 34.1106 22.4867 34.1106C22.1208 34.1106 21.7769 33.9684 21.5183 33.7099L15.0595 27.2513C14.5256 26.7174 14.5256 25.8487 15.0593 25.3149C15.3179 25.0565 15.6619 24.914 16.0278 24.914C16.3937 24.914 16.7375 25.0563 16.996 25.3147L21.7131 30.0319C21.9183 30.237 22.1964 30.3522 22.4866 30.3522C22.7767 30.3522 23.0548 30.2371 23.2599 30.0319L35.0018 18.2901Z" fill="#F8FBFF"/>
</g>
<defs>
<clipPath id="clip0_365_154">
<rect width="52" height="52" fill="white"/>
</clipPath>
</defs>
</svg>
