<svg width="71" height="71" viewBox="0 0 71 71" fill="none" xmlns="http://www.w3.org/2000/svg">
<circle cx="35.5" cy="35.5" r="35.5" fill="#7F4D4F"/>
<path d="M55.1265 40.3918C54.8816 38.372 53.9765 36.4896 52.5518 35.0371C51.1271 33.5845 49.2626 32.6431 47.2479 32.3591C47.0634 32.3353 46.8769 32.3857 46.7295 32.4991C46.582 32.6126 46.4855 32.7799 46.4611 32.9643C46.4368 33.1488 46.4866 33.3354 46.5995 33.4832C46.7125 33.6311 46.8795 33.7281 47.0639 33.753C48.7684 33.9933 50.3459 34.7899 51.5511 36.019C52.7563 37.2481 53.5217 38.8409 53.7285 40.5498C53.9533 42.4621 53.4608 44.3898 52.3465 45.96C51.2321 47.5302 49.575 48.6314 47.6957 49.0504C45.8164 49.4695 43.8485 49.1767 42.1726 48.2286C40.4967 47.2806 39.2319 45.7447 38.623 43.9181C38.2438 42.7012 38.1777 41.4083 38.4307 40.1591C39.7572 33.4643 42.4116 27.103 46.2372 21.451C46.2885 21.3743 46.3242 21.2882 46.3422 21.1977C46.3602 21.1072 46.3603 21.014 46.3423 20.9234C46.3243 20.8329 46.2887 20.7468 46.2374 20.67C46.1861 20.5932 46.1203 20.5273 46.0435 20.476C45.9668 20.4247 45.8807 20.389 45.7902 20.371C45.6996 20.3529 45.6065 20.3529 45.5159 20.3709C45.4254 20.3889 45.3393 20.4245 45.2625 20.4758C45.1857 20.527 45.1198 20.5929 45.0685 20.6696C41.1364 26.4832 38.4087 33.0255 37.0464 39.9105C36.7508 41.3912 36.8342 42.9225 37.2888 44.3624C38.0078 46.5186 39.5006 48.3318 41.4788 49.4512C43.457 50.5707 45.78 50.9169 47.9986 50.4231C50.2173 49.9292 52.1741 48.6303 53.4906 46.7775C54.8072 44.9246 55.39 42.6495 55.1265 40.3918Z" fill="#F8FBFF"/>
<path d="M26.1813 32.3591C25.9965 32.3348 25.8096 32.3849 25.6617 32.4984C25.5138 32.6119 25.417 32.7795 25.3927 32.9644C25.3684 33.1492 25.4185 33.3361 25.532 33.484C25.6456 33.6319 25.8132 33.7287 25.998 33.753C27.7024 33.9935 29.2797 34.7902 30.4849 36.0192C31.6901 37.2483 32.4556 38.8409 32.6626 40.5497C32.8873 42.4621 32.3948 44.3898 31.2805 45.96C30.1661 47.5302 28.5089 48.6313 26.6296 49.0504C24.7503 49.4694 22.7823 49.1766 21.1064 48.2286C19.4305 47.2806 18.1657 45.7447 17.5567 43.9181C17.1773 42.7012 17.1111 41.4083 17.3641 40.1591C18.6904 33.4641 21.345 27.1029 25.1709 21.451C25.2739 21.2959 25.3111 21.1064 25.2746 20.9239C25.238 20.7414 25.1305 20.5808 24.9758 20.4774C24.821 20.374 24.6316 20.3362 24.449 20.3722C24.2663 20.4082 24.1055 20.5152 24.0016 20.6696C20.0695 26.4831 17.3419 33.0255 15.9798 39.9105C15.6844 41.3912 15.7679 42.9225 16.2226 44.3623C16.7403 45.9165 17.6642 47.3039 18.8985 48.3808C20.1329 49.4578 21.6328 50.185 23.2428 50.4871C24.8527 50.7893 26.5143 50.6554 28.0551 50.0993C29.5959 49.5432 30.96 48.5852 32.006 47.3245C33.0519 46.0638 33.7417 44.5463 34.0038 42.9293C34.2659 41.3123 34.0909 39.6547 33.4967 38.1281C32.9026 36.6015 31.911 35.2617 30.6247 34.2473C29.3385 33.2329 27.8043 32.581 26.1813 32.3591Z" fill="#F8FBFF"/>
</svg>
