<svg width="75" height="75" viewBox="0 0 75 75" fill="none" xmlns="http://www.w3.org/2000/svg">
<mask id="path-1-inside-1_365_451" fill="white">
<path d="M30.4379 54.6455C30.1342 49.964 30.6065 57.4099 30.4379 54.6455V54.6455Z"/>
</mask>
<path d="M34.4295 54.3866C34.3915 53.8011 34.3656 53.4036 34.3489 53.1516C34.3448 53.0885 34.3412 53.0342 34.3381 52.9882C34.3351 52.9422 34.3325 52.9038 34.3304 52.8727C34.3293 52.8571 34.3283 52.8429 34.3274 52.8301C34.3266 52.8176 34.3257 52.8052 34.3249 52.7936C34.3245 52.7878 34.324 52.7813 34.3235 52.7745C34.323 52.7681 34.3223 52.759 34.3215 52.7486C34.3211 52.7433 34.3205 52.7362 34.3198 52.7278C34.3195 52.7242 34.3189 52.7168 34.3185 52.7126C34.3181 52.7077 34.3171 52.6972 34.3166 52.6914C34.3159 52.6841 34.3143 52.668 34.3134 52.6588C34.3122 52.6467 34.3091 52.6181 34.3072 52.6015C34.3043 52.5767 34.2959 52.5119 34.2901 52.4718C34.2778 52.3939 34.2182 52.1059 34.1613 51.8981C33.2038 50.2733 28.3693 49.5747 26.4298 52.1868C26.3762 52.4764 26.3383 52.8626 26.3348 52.9562C26.3339 53.0023 26.3335 53.0756 26.3337 53.1029C26.3339 53.121 26.3345 53.152 26.3348 53.1649C26.3351 53.1746 26.3356 53.1918 26.3359 53.1994C26.3361 53.2055 26.3365 53.2165 26.3367 53.2216C26.3372 53.2331 26.3376 53.2427 26.3379 53.2491C26.3382 53.2559 26.3385 53.2617 26.3388 53.2664C26.339 53.2711 26.3392 53.2753 26.3394 53.279C26.3398 53.2862 26.3401 53.2929 26.3405 53.2984C26.3411 53.3095 26.3417 53.321 26.3424 53.3317C26.343 53.3427 26.3437 53.3546 26.3445 53.3671C26.346 53.3921 26.3478 53.4216 26.3498 53.4545C26.3518 53.4875 26.3541 53.5246 26.3566 53.5651C26.3666 53.7266 26.3805 53.9462 26.3953 54.1798C26.4101 54.4135 26.426 54.6625 26.4402 54.8829C26.4473 54.9932 26.454 55.0966 26.4599 55.1876C26.4658 55.2784 26.4711 55.3582 26.4753 55.4206C26.4773 55.4518 26.4793 55.4803 26.4809 55.5045C26.4818 55.5166 26.4827 55.5289 26.4835 55.5408C26.4839 55.5467 26.4844 55.5532 26.4849 55.5599C26.4854 55.5664 26.486 55.5745 26.4867 55.5834C26.4871 55.588 26.4875 55.5934 26.488 55.5994C26.4885 55.6053 26.4891 55.613 26.4899 55.6219C26.4902 55.6256 26.4909 55.6333 26.4913 55.6376C26.4917 55.6425 26.4927 55.6528 26.4932 55.6585C26.4939 55.6653 26.4953 55.6801 26.4962 55.6884C26.4972 55.6987 26.4998 55.722 26.5013 55.7352C26.5033 55.7528 26.5086 55.7951 26.5119 55.8199C26.5172 55.8573 26.5332 55.9583 26.5447 56.0218C26.5715 56.1521 26.7322 56.6905 26.9047 57.0833C29.3665 59.1235 33.7145 57.6272 34.3749 56.1712C34.4241 55.919 34.4652 55.5653 34.4711 55.4663C34.4731 55.4143 34.4751 55.33 34.4754 55.2978C34.4754 55.2759 34.4752 55.2383 34.475 55.2224C34.4748 55.2103 34.4744 55.1889 34.4741 55.1794C34.4739 55.1717 34.4736 55.1578 34.4734 55.1514C34.4732 55.146 34.4728 55.1362 34.4727 55.1315C34.4723 55.1206 34.4719 55.1113 34.4716 55.1045C34.4713 55.0975 34.471 55.0912 34.4708 55.0862C34.4706 55.081 34.4703 55.0762 34.4701 55.0721C34.4697 55.0639 34.4693 55.0562 34.469 55.0495C34.4686 55.0427 34.4683 55.036 34.4679 55.0295C34.4672 55.0166 34.4664 55.0027 34.4656 54.9882C34.4648 54.9735 34.4638 54.9573 34.4628 54.9396C34.4607 54.9043 34.4582 54.8616 34.4552 54.8112C34.4492 54.7103 34.441 54.5755 34.4304 54.4019L26.4453 54.8891C26.4558 55.061 26.4637 55.192 26.4694 55.2881C26.4723 55.3361 26.4746 55.3746 26.4763 55.4047C26.4772 55.4198 26.4779 55.4323 26.4785 55.4425C26.4791 55.453 26.4795 55.4602 26.4798 55.4648C26.4799 55.4671 26.4799 55.4682 26.48 55.4684C26.48 55.4687 26.4799 55.4672 26.4797 55.4642C26.4797 55.4626 26.4795 55.4603 26.4794 55.4573C26.4793 55.4544 26.4791 55.4501 26.4789 55.4449C26.4786 55.4398 26.4783 55.4321 26.478 55.4225C26.4778 55.4185 26.4775 55.4093 26.4774 55.4045C26.4772 55.3986 26.4768 55.3852 26.4766 55.378C26.4764 55.3689 26.476 55.348 26.4758 55.3363C26.4756 55.3207 26.4754 55.2834 26.4754 55.2618C26.4757 55.2298 26.4776 55.1458 26.4797 55.0939C26.4856 54.995 26.5267 54.6415 26.5759 54.3893C27.2362 52.9334 31.5842 51.4371 34.046 53.4773C34.2185 53.8701 34.3792 54.4083 34.406 54.5385C34.4174 54.6019 34.4334 54.7026 34.4387 54.7399C34.4419 54.7644 34.4472 54.8064 34.4492 54.8237C34.4506 54.8366 34.4531 54.8595 34.4541 54.8693C34.4549 54.8772 34.4564 54.8915 34.457 54.8978C34.4575 54.903 34.4584 54.9127 34.4587 54.917C34.4591 54.9207 34.4597 54.9277 34.46 54.9307C34.4606 54.9381 34.4611 54.9442 34.4614 54.9483C34.4618 54.9525 34.4621 54.9559 34.4622 54.9583C34.4626 54.9629 34.4628 54.9658 34.4629 54.9665C34.4629 54.9674 34.4629 54.9674 34.4628 54.9661C34.4627 54.9635 34.4623 54.9586 34.4618 54.951C34.4607 54.9356 34.4592 54.9141 34.4574 54.8861C34.4537 54.8305 34.4488 54.7561 34.443 54.6674C34.4372 54.579 34.4307 54.4777 34.4237 54.3689C34.4097 54.1514 34.3939 53.905 34.3792 53.6734C34.3645 53.4415 34.3509 53.2258 34.3412 53.0691C34.3388 53.03 34.3366 52.9949 34.3347 52.9644C34.3329 52.9337 34.3313 52.9084 34.3301 52.8885C34.3295 52.8787 34.3291 52.8707 34.3287 52.8645C34.3283 52.858 34.3282 52.8549 34.3281 52.8544C34.3281 52.8541 34.3282 52.8557 34.3283 52.8585C34.3284 52.86 34.3285 52.8622 34.3287 52.8651C34.3288 52.8679 34.329 52.8721 34.3293 52.8774C34.3295 52.8824 34.3299 52.8907 34.3303 52.9012C34.3305 52.9058 34.3309 52.9162 34.3311 52.9219C34.3313 52.9291 34.3318 52.9459 34.3321 52.9553C34.3324 52.9679 34.333 52.9985 34.3332 53.0164C34.3334 53.0435 34.3331 53.1166 34.3321 53.1625C34.3286 53.256 34.2908 53.6421 34.2372 53.9316C32.2977 56.5437 27.4632 55.8451 26.5057 54.2204C26.4488 54.0126 26.3892 53.7247 26.3769 53.647C26.3712 53.607 26.3628 53.5424 26.3599 53.5179C26.358 53.5015 26.355 53.4732 26.3538 53.4615C26.3529 53.4527 26.3514 53.4369 26.3508 53.4301C26.3503 53.4247 26.3494 53.4148 26.349 53.4104C26.3487 53.4068 26.3481 53.4 26.3478 53.3971C26.3472 53.3901 26.3468 53.3844 26.3465 53.3809C26.346 53.374 26.3456 53.3692 26.3455 53.3681C26.3454 53.3665 26.3454 53.366 26.3455 53.3672C26.3456 53.3695 26.346 53.3745 26.3466 53.3831C26.3472 53.3915 26.3479 53.4021 26.3488 53.4152C26.3506 53.4415 26.3529 53.4761 26.3558 53.52C26.3587 53.5637 26.3622 53.6161 26.3663 53.6779C26.3826 53.9256 26.4083 54.3196 26.4462 54.9044L34.4295 54.3866Z" fill="#EDE7E7" mask="url(#path-1-inside-1_365_451)"/>
<path d="M41.6017 37.6391L41.6017 37.6391C41.6617 37.6422 41.7218 37.6454 41.782 37.6486C45.5023 37.8449 49.8438 38.0739 53.5442 39.3048C57.2208 40.5277 59.9293 42.6168 60.8297 46.4367L60.8298 46.437C61.293 48.401 60.9417 49.8005 60.1899 50.9547C59.3791 52.1996 58.0041 53.3049 56.1698 54.3912C54.8342 55.1823 53.4055 55.8816 51.9196 56.6089C51.3495 56.888 50.771 57.1711 50.1861 57.4652C48.1753 58.4761 46.0741 59.6243 44.5203 61.0864C41.1192 64.2868 38.3449 64.4035 36.5362 63.4106C34.545 62.3175 32.7316 59.388 32.435 54.5247L32.435 54.5247L32.4345 54.5166C32.1467 50.0945 32.687 45.6052 34.0036 41.4829L34.0037 41.4826C34.8544 38.818 35.6126 38.1481 36.2743 37.8622C36.6857 37.6844 37.2598 37.569 38.1665 37.5381C39.083 37.5069 40.1735 37.5636 41.6017 37.6391Z" stroke="#EDE7E7" stroke-width="4"/>
<path d="M16.5092 24.3135L16.5092 24.3135C16.0812 26.3946 16.1796 28.5347 16.889 30.438L16.8891 30.438C18.2218 34.0135 21.917 36.5892 25.4576 36.2865C27.1862 36.1383 28.4206 35.2575 28.7123 34.3416L16.5092 24.3135ZM16.5092 24.3135C16.6758 23.5033 16.9335 22.392 17.3305 21.4317C17.5282 20.9536 17.7326 20.5827 17.9282 20.3271C18.1196 20.077 18.2315 20.0292 18.2314 20.0291C18.2314 20.0291 18.2314 20.0291 18.2313 20.0291C18.4095 19.9622 18.8375 19.9105 19.7234 20.4745C20.5914 21.0271 21.5639 21.9715 22.5639 23.1666C24.232 25.1601 25.6947 27.497 26.6544 29.0302C26.8429 29.3314 27.012 29.6015 27.1595 29.832L27.1601 29.833M16.5092 24.3135L27.1601 29.833M27.1601 29.833C27.7531 30.7588 28.2564 31.6152 28.5519 32.4364M27.1601 29.833L28.5519 32.4364M28.5519 32.4364C28.8409 33.2392 28.8708 33.8438 28.7123 34.3415L28.5519 32.4364Z" stroke="#EDE7E7" stroke-width="4"/>
<path d="M32.9341 15.0472L32.9333 15.0471C32.1121 14.9583 30.9752 14.8645 29.9394 14.9493C29.4236 14.9916 29.0075 15.073 28.7039 15.1812C28.4066 15.2873 28.3266 15.3793 28.3264 15.3792C28.3264 15.3792 28.3265 15.3791 28.3267 15.3788L26.7599 14.1359L28.3277 15.3776C28.2096 15.5268 28.0296 15.9186 28.296 16.9346C28.557 17.9299 29.1592 19.1446 29.9917 20.4619C31.3809 22.6603 33.1602 24.768 34.3267 26.1498C34.5552 26.4205 34.7602 26.6634 34.9342 26.8736L34.9343 26.8738C35.6356 27.7215 36.2971 28.4621 36.9887 28.9944C37.6647 29.5147 38.2309 29.7277 38.7531 29.7287L38.7537 29.7287C39.7157 29.7308 40.931 28.8245 41.6002 27.2227L41.6002 27.2226C42.9704 23.9432 41.6476 19.6392 38.649 17.2779L32.9341 15.0472ZM32.9341 15.0472C35.0454 15.2744 37.0536 16.0227 38.6486 17.2776L32.9341 15.0472Z" stroke="#EDE7E7" stroke-width="4"/>
<path d="M50.4419 18.043L50.4423 18.0429C51.5255 17.7639 52.7576 18.3436 54.1076 20.0478C55.3912 21.6683 56.2411 23.6791 56.4676 24.4828L56.4679 24.4839C56.9267 26.1089 56.9252 28.1934 56.2837 29.5586C55.9879 30.188 55.5954 30.591 55.1027 30.8157C54.5988 31.0455 53.7567 31.1947 52.3784 30.8749L52.3783 30.8749C51.3796 30.6432 50.6848 30.4513 50.1918 30.2749C49.7774 30.1266 49.5885 30.0176 49.5135 29.9659C49.4898 29.8707 49.4618 29.6825 49.4357 29.2608L49.4356 29.2591C49.4201 29.0125 49.399 28.7253 49.3756 28.4052C49.2599 26.8262 49.0858 24.4489 49.229 22.2087C49.3154 20.8579 49.5106 19.724 49.8216 18.9314C50.1396 18.1208 50.4134 18.0504 50.4419 18.0431L50.4419 18.043Z" stroke="#EDE7E7" stroke-width="4"/>
<path d="M24.5985 45.3934L24.5959 45.3924C24.3663 45.3024 24.0998 45.1949 23.803 45.0751C22.3346 44.4826 20.1231 43.5901 17.9454 43.0419C16.6329 42.7115 15.4936 42.551 14.6438 42.6049C13.7746 42.66 13.6237 42.8992 13.6081 42.9239L13.6081 42.924L11.9165 41.857M24.5985 45.3934L17.9003 50.6298C17.204 50.1678 15.5495 48.7441 14.3988 47.027C13.1884 45.2208 13.0123 43.8698 13.6087 42.923L11.9165 41.857M24.5985 45.3934C24.9908 45.5464 25.1612 45.6304 25.2444 45.6818C25.2708 45.7692 25.3169 45.9826 25.3315 46.4227C25.3489 46.9461 25.3196 47.6663 25.2354 48.6879L24.5985 45.3934ZM11.9165 41.857C13.7978 38.8744 21.3943 41.9442 24.5895 43.2354C24.8713 43.3492 25.1189 43.4493 25.3253 43.5301L16.7951 52.2967C15.0114 51.1135 9.38443 45.8763 11.9165 41.857ZM24.3469 51.2642C24.7196 50.8547 25.1189 50.0984 25.2354 48.6881L24.3469 51.2642ZM24.3469 51.2642C23.9825 51.6647 23.4789 51.9153 22.7891 52.0046M24.3469 51.2642L22.7891 52.0046M22.7891 52.0046C21.2931 52.1984 19.3077 51.5628 17.9007 50.6301L22.7891 52.0046Z" stroke="#EDE7E7" stroke-width="4"/>
</svg>
