<svg width="77" height="55" viewBox="0 0 77 55" fill="none" xmlns="http://www.w3.org/2000/svg">
<path d="M67.7374 10.3471L67.7378 10.3462C68.2884 8.87459 68.2893 7.22139 67.6153 5.69509C66.2617 2.63119 62.4641 1.15445 59.4022 2.49958L59.4019 2.49973C57.8826 3.16682 56.7824 4.35128 56.1915 5.75457L67.7374 10.3471ZM67.7374 10.3471C66.9427 12.4743 68.0285 14.798 70.1748 15.5481C71.6578 16.0672 72.9277 17.1254 73.6667 18.6191L73.6673 18.6203C75.1552 21.6222 73.8584 25.4856 70.8652 26.9769C69.3785 27.7167 67.7636 27.8036 66.309 27.3587L66.3088 27.3586C59.1581 25.1722 50.4042 27.0427 40.2197 31.8131L40.2196 31.8132C30.0366 36.5834 22.9953 42.1099 20.0974 49.0028C19.5066 50.4069 18.4056 51.5915 16.8874 52.2577L16.8865 52.2581C13.8227 53.6041 10.0265 52.1266 8.67374 49.062L8.67307 49.0605C7.9988 47.5364 7.99911 45.885 8.54861 44.4131C9.34674 42.2834 8.25653 39.9619 6.11446 39.21L6.11226 39.2093M67.7374 10.3471L6.11226 39.2093M6.11226 39.2093C4.63178 38.6916 3.36083 37.6327 2.61909 36.137L0.827306 37.0255M6.11226 39.2093L0.827306 37.0255M0.827306 37.0255L2.61908 36.1369C1.13167 33.1376 2.42687 29.2742 5.42156 27.7817C6.90735 27.0413 8.52248 26.9547 9.97858 27.3992C13.3764 28.4381 16.5196 28.976 20.5959 28.3656C24.5816 27.7688 29.3503 26.0904 36.0669 22.9445C42.7835 19.7986 47.1257 17.2098 50.1359 14.5301M0.827306 37.0255L50.1359 14.5301M50.1359 14.5301C53.2145 11.7894 54.8137 9.03047 56.1913 5.75518L50.1359 14.5301Z" stroke="#936F71" stroke-opacity="0.1" stroke-width="4"/>
</svg>
