<svg width="75" height="75" viewBox="0 0 75 75" fill="none" xmlns="http://www.w3.org/2000/svg">
<mask id="path-1-inside-1_365_444" fill="white">
<path d="M30.4379 54.6462C30.1342 49.9647 30.6065 57.4106 30.4379 54.6462V54.6462Z"/>
</mask>
<path d="M34.4295 54.3874C34.3915 53.8018 34.3656 53.4044 34.3489 53.1524C34.3448 53.0892 34.3412 53.035 34.3381 52.9889C34.3351 52.943 34.3325 52.9046 34.3304 52.8734C34.3293 52.8579 34.3283 52.8436 34.3274 52.8308C34.3266 52.8183 34.3257 52.8059 34.3249 52.7943C34.3245 52.7885 34.324 52.782 34.3235 52.7752C34.323 52.7688 34.3223 52.7598 34.3215 52.7494C34.3211 52.7441 34.3205 52.7369 34.3198 52.7285C34.3195 52.7249 34.3189 52.7175 34.3185 52.7134C34.3181 52.7085 34.3171 52.698 34.3166 52.6921C34.3159 52.6849 34.3143 52.6687 34.3134 52.6595C34.3122 52.6474 34.3091 52.6188 34.3072 52.6022C34.3043 52.5775 34.2959 52.5127 34.2901 52.4725C34.2778 52.3947 34.2182 52.1066 34.1613 51.8988C33.2038 50.274 28.3693 49.5754 26.4298 52.1875C26.3762 52.4771 26.3383 52.8633 26.3348 52.957C26.3339 53.003 26.3335 53.0763 26.3337 53.1036C26.3339 53.1218 26.3345 53.1527 26.3348 53.1656C26.3351 53.1754 26.3356 53.1925 26.3359 53.2001C26.3361 53.2063 26.3365 53.2172 26.3367 53.2223C26.3372 53.2338 26.3376 53.2434 26.3379 53.2498C26.3382 53.2566 26.3385 53.2625 26.3388 53.2671C26.339 53.2718 26.3392 53.2761 26.3394 53.2797C26.3398 53.2869 26.3401 53.2936 26.3405 53.2992C26.3411 53.3103 26.3417 53.3217 26.3424 53.3324C26.343 53.3434 26.3437 53.3553 26.3445 53.3679C26.346 53.3929 26.3478 53.4223 26.3498 53.4552C26.3518 53.4882 26.3541 53.5253 26.3566 53.5658C26.3666 53.7273 26.3805 53.947 26.3953 54.1805C26.4101 54.4143 26.426 54.6632 26.4402 54.8837C26.4473 54.9939 26.454 55.0973 26.4599 55.1884C26.4658 55.2791 26.4711 55.3589 26.4753 55.4214C26.4773 55.4525 26.4793 55.481 26.4809 55.5052C26.4818 55.5173 26.4827 55.5297 26.4835 55.5415C26.4839 55.5475 26.4844 55.5539 26.4849 55.5606C26.4854 55.5671 26.486 55.5752 26.4867 55.5842C26.4871 55.5887 26.4875 55.5941 26.488 55.6002C26.4885 55.6061 26.4891 55.6137 26.4899 55.6226C26.4902 55.6264 26.4909 55.634 26.4913 55.6383C26.4917 55.6432 26.4927 55.6535 26.4932 55.6592C26.4939 55.666 26.4953 55.6809 26.4962 55.6891C26.4972 55.6994 26.4998 55.7227 26.5013 55.7359C26.5033 55.7535 26.5086 55.7958 26.5119 55.8206C26.5172 55.8581 26.5332 55.959 26.5447 56.0225C26.5715 56.1528 26.7322 56.6912 26.9047 57.084C29.3665 59.1243 33.7145 57.6279 34.3749 56.1719C34.4241 55.9197 34.4652 55.5661 34.4711 55.467C34.4731 55.415 34.4751 55.3308 34.4754 55.2985C34.4754 55.2766 34.4752 55.239 34.475 55.2231C34.4748 55.211 34.4744 55.1897 34.4741 55.1801C34.4739 55.1724 34.4736 55.1586 34.4734 55.1521C34.4732 55.1467 34.4728 55.1369 34.4727 55.1322C34.4723 55.1213 34.4719 55.112 34.4716 55.1052C34.4713 55.0982 34.471 55.092 34.4708 55.0869C34.4706 55.0817 34.4703 55.077 34.4701 55.0728C34.4697 55.0646 34.4693 55.0569 34.469 55.0503C34.4686 55.0435 34.4683 55.0368 34.4679 55.0303C34.4672 55.0174 34.4664 55.0035 34.4656 54.9889C34.4648 54.9742 34.4638 54.958 34.4628 54.9404C34.4607 54.9051 34.4582 54.8624 34.4552 54.8119C34.4492 54.7111 34.441 54.5763 34.4304 54.4027L26.4453 54.8898C26.4558 55.0618 26.4637 55.1928 26.4694 55.2888C26.4723 55.3368 26.4746 55.3754 26.4763 55.4055C26.4772 55.4205 26.4779 55.433 26.4785 55.4433C26.4791 55.4537 26.4795 55.4609 26.4798 55.4656C26.4799 55.4678 26.4799 55.469 26.48 55.4692C26.48 55.4695 26.4799 55.4679 26.4797 55.4649C26.4797 55.4633 26.4795 55.461 26.4794 55.458C26.4793 55.4551 26.4791 55.4508 26.4789 55.4456C26.4786 55.4406 26.4783 55.4328 26.478 55.4232C26.4778 55.4192 26.4775 55.41 26.4774 55.4052C26.4772 55.3993 26.4768 55.386 26.4766 55.3787C26.4764 55.3697 26.476 55.3487 26.4758 55.337C26.4756 55.3215 26.4754 55.2841 26.4754 55.2626C26.4757 55.2305 26.4776 55.1465 26.4797 55.0946C26.4856 54.9958 26.5267 54.6422 26.5759 54.3901C27.2362 52.9341 31.5842 51.4378 34.046 53.478C34.2185 53.8708 34.3792 54.4091 34.406 54.5393C34.4174 54.6026 34.4334 54.7034 34.4387 54.7406C34.4419 54.7652 34.4472 54.8072 34.4492 54.8244C34.4506 54.8373 34.4531 54.8602 34.4541 54.8701C34.4549 54.8779 34.4564 54.8922 34.457 54.8985C34.4575 54.9037 34.4584 54.9135 34.4587 54.9178C34.4591 54.9214 34.4597 54.9284 34.46 54.9314C34.4606 54.9389 34.4611 54.9449 34.4614 54.949C34.4618 54.9532 34.4621 54.9566 34.4622 54.959C34.4626 54.9636 34.4628 54.9666 34.4629 54.9673C34.4629 54.9682 34.4629 54.9681 34.4628 54.9669C34.4627 54.9643 34.4623 54.9594 34.4618 54.9517C34.4607 54.9363 34.4592 54.9148 34.4574 54.8869C34.4537 54.8313 34.4488 54.7568 34.443 54.6681C34.4372 54.5797 34.4307 54.4785 34.4237 54.3697C34.4097 54.1521 34.3939 53.9057 34.3792 53.6741C34.3645 53.4423 34.3509 53.2265 34.3412 53.0698C34.3388 53.0308 34.3366 52.9957 34.3347 52.9651C34.3329 52.9344 34.3313 52.9091 34.3301 52.8893C34.3295 52.8794 34.3291 52.8714 34.3287 52.8652C34.3283 52.8588 34.3282 52.8557 34.3281 52.8551C34.3281 52.8549 34.3282 52.8564 34.3283 52.8592C34.3284 52.8607 34.3285 52.863 34.3287 52.8658C34.3288 52.8686 34.329 52.8729 34.3293 52.8782C34.3295 52.8831 34.3299 52.8915 34.3303 52.9019C34.3305 52.9065 34.3309 52.917 34.3311 52.9227C34.3313 52.9299 34.3318 52.9466 34.3321 52.956C34.3324 52.9686 34.333 52.9993 34.3332 53.0172C34.3334 53.0442 34.3331 53.1173 34.3321 53.1632C34.3286 53.2567 34.2908 53.6428 34.2372 53.9324C32.2977 56.5445 27.4632 55.8459 26.5057 54.2211C26.4488 54.0134 26.3892 53.7254 26.3769 53.6477C26.3712 53.6077 26.3628 53.5431 26.3599 53.5186C26.358 53.5023 26.355 53.474 26.3538 53.4622C26.3529 53.4534 26.3514 53.4377 26.3508 53.4309C26.3503 53.4255 26.3494 53.4155 26.349 53.4111C26.3487 53.4076 26.3481 53.4008 26.3478 53.3978C26.3472 53.3908 26.3468 53.3852 26.3465 53.3816C26.346 53.3747 26.3456 53.37 26.3455 53.3688C26.3454 53.3672 26.3454 53.3668 26.3455 53.3679C26.3456 53.3702 26.346 53.3752 26.3466 53.3838C26.3472 53.3922 26.3479 53.4028 26.3488 53.416C26.3506 53.4423 26.3529 53.4768 26.3558 53.5207C26.3587 53.5645 26.3622 53.6169 26.3663 53.6787C26.3826 53.9263 26.4083 54.3203 26.4462 54.9051L34.4295 54.3874Z" fill="#EDE7E7" mask="url(#path-1-inside-1_365_444)"/>
<path d="M41.6017 37.6398L41.6017 37.6398C41.6617 37.643 41.7218 37.6461 41.782 37.6493C45.5023 37.8456 49.8438 38.0746 53.5442 39.3055C57.2208 40.5285 59.9293 42.6176 60.8297 46.4374L60.8298 46.4377C61.293 48.4017 60.9417 49.8013 60.1899 50.9554C59.3791 52.2003 58.0041 53.3056 56.1698 54.392C54.8342 55.183 53.4055 55.8823 51.9196 56.6096C51.3495 56.8887 50.771 57.1719 50.1861 57.4659C48.1753 58.4769 46.0741 59.625 44.5203 61.0872C41.1192 64.2875 38.3449 64.4042 36.5362 63.4113C34.545 62.3182 32.7316 59.3888 32.435 54.5255L32.435 54.5255L32.4345 54.5173C32.1467 50.0952 32.687 45.6059 34.0036 41.4836L34.0037 41.4834C34.8544 38.8188 35.6126 38.1489 36.2743 37.863C36.6857 37.6851 37.2598 37.5698 38.1665 37.5389C39.083 37.5076 40.1735 37.5643 41.6017 37.6398Z" stroke="#EDE7E7" stroke-width="4"/>
<path d="M16.5092 24.3142L16.5092 24.3143C16.0812 26.3953 16.1796 28.5354 16.889 30.4387L16.8891 30.4388C18.2218 34.0142 21.917 36.5899 25.4576 36.2872C27.1862 36.139 28.4206 35.2583 28.7123 34.3423L16.5092 24.3142ZM16.5092 24.3142C16.6758 23.504 16.9335 22.3927 17.3305 21.4324C17.5282 20.9543 17.7326 20.5834 17.9282 20.3278C18.1196 20.0778 18.2315 20.03 18.2314 20.0298C18.2314 20.0298 18.2314 20.0298 18.2313 20.0299C18.4095 19.9629 18.8375 19.9113 19.7234 20.4752C20.5914 21.0278 21.5639 21.9722 22.5639 23.1673C24.232 25.1609 25.6947 27.4977 26.6544 29.0309C26.8429 29.3321 27.012 29.6023 27.1595 29.8327L27.1601 29.8337M16.5092 24.3142L27.1601 29.8337M27.1601 29.8337C27.7531 30.7595 28.2564 31.616 28.5519 32.4371M27.1601 29.8337L28.5519 32.4371M28.5519 32.4371C28.8409 33.2399 28.8708 33.8446 28.7123 34.3423L28.5519 32.4371Z" stroke="#EDE7E7" stroke-width="4"/>
<path d="M32.9341 15.0479L32.9333 15.0478C32.1121 14.9591 30.9752 14.8652 29.9394 14.9501C29.4236 14.9923 29.0075 15.0737 28.7039 15.182C28.4066 15.288 28.3266 15.3801 28.3264 15.38C28.3264 15.38 28.3265 15.3798 28.3267 15.3796L26.7599 14.1366L28.3277 15.3783C28.2096 15.5275 28.0296 15.9194 28.296 16.9353C28.557 17.9306 29.1592 19.1453 29.9917 20.4626C31.3809 22.661 33.1602 24.7688 34.3267 26.1506C34.5552 26.4213 34.7602 26.6641 34.9342 26.8743L34.9343 26.8745C35.6356 27.7222 36.2971 28.4628 36.9887 28.9952C37.6647 29.5155 38.2309 29.7285 38.7531 29.7295L38.7537 29.7295C39.7157 29.7316 40.931 28.8253 41.6002 27.2235L41.6002 27.2234C42.9704 23.9439 41.6476 19.64 38.649 17.2787L32.9341 15.0479ZM32.9341 15.0479C35.0454 15.2751 37.0536 16.0234 38.6486 17.2783L32.9341 15.0479Z" stroke="#EDE7E7" stroke-width="4"/>
<path d="M50.4419 18.0438L50.4423 18.0437C51.5255 17.7647 52.7576 18.3444 54.1076 20.0486C55.3912 21.669 56.2411 23.6798 56.4676 24.4836L56.4679 24.4846C56.9267 26.1097 56.9252 28.1942 56.2837 29.5594C55.9879 30.1888 55.5954 30.5917 55.1027 30.8164C54.5988 31.0462 53.7567 31.1954 52.3784 30.8757L52.3783 30.8756C51.3796 30.644 50.6848 30.452 50.1918 30.2756C49.7774 30.1274 49.5885 30.0183 49.5135 29.9667C49.4898 29.8714 49.4618 29.6832 49.4357 29.2615L49.4356 29.2599C49.4201 29.0132 49.399 28.726 49.3756 28.406C49.2599 26.8269 49.0858 24.4496 49.229 22.2094C49.3154 20.8586 49.5106 19.7247 49.8216 18.9321C50.1396 18.1216 50.4134 18.0511 50.4419 18.0438L50.4419 18.0438Z" stroke="#EDE7E7" stroke-width="4"/>
<path d="M24.5985 45.3941L24.5959 45.3931C24.3663 45.3032 24.0998 45.1956 23.803 45.0759C22.3346 44.4833 20.1231 43.5909 17.9454 43.0427C16.6329 42.7122 15.4936 42.5517 14.6438 42.6056C13.7746 42.6608 13.6237 42.8999 13.6081 42.9247L13.6081 42.9247L11.9165 41.8577M24.5985 45.3941L17.9003 50.6306C17.204 50.1686 15.5495 48.7448 14.3988 47.0277C13.1884 45.2215 13.0123 43.8705 13.6087 42.9238L11.9165 41.8577M24.5985 45.3941C24.9908 45.5472 25.1612 45.6311 25.2444 45.6825C25.2708 45.7699 25.3169 45.9834 25.3315 46.4234C25.3489 46.9468 25.3196 47.6671 25.2354 48.6886L24.5985 45.3941ZM11.9165 41.8577C13.7978 38.8751 21.3943 41.9449 24.5895 43.2361C24.8713 43.35 25.1189 43.45 25.3253 43.5309L16.7951 52.2975C15.0114 51.1142 9.38443 45.877 11.9165 41.8577ZM24.3469 51.265C24.7196 50.8554 25.1189 50.0991 25.2354 48.6888L24.3469 51.265ZM24.3469 51.265C23.9825 51.6654 23.4789 51.916 22.7891 52.0054M24.3469 51.265L22.7891 52.0054M22.7891 52.0054C21.2931 52.1991 19.3077 51.5636 17.9007 50.6308L22.7891 52.0054Z" stroke="#EDE7E7" stroke-width="4"/>
</svg>
