<svg width="19" height="19" viewBox="0 0 19 19" fill="none" xmlns="http://www.w3.org/2000/svg">
<g clip-path="url(#clip0_365_1000)">
<path d="M5.225 0.791138C6.92708 0.793766 8.52155 1.62393 9.5 3.01662C10.4785 1.62393 12.0729 0.793766 13.775 0.791138C16.5585 0.791138 19 3.38091 19 6.3328C19 9.20971 17.3755 12.1727 14.302 14.9018C12.8779 16.1639 11.3157 17.2609 9.64534 18.1724C9.55412 18.2194 9.44588 18.2194 9.35466 18.1724C7.68489 17.2609 6.1232 16.1637 4.69959 14.9018C1.62446 12.1727 0 9.20971 0 6.3328C0 3.38091 2.44149 0.791138 5.225 0.791138V0.791138ZM9.5 17.531C10.6631 16.8892 18.3667 12.4051 18.3667 6.3328C18.3667 3.71814 16.2213 1.42447 13.775 1.42447C12.1178 1.42741 10.5901 2.32144 9.77585 3.76499C9.71492 3.85807 9.61117 3.91405 9.5 3.91405C9.38883 3.91405 9.28508 3.85807 9.22415 3.76499C8.40991 2.32144 6.88224 1.42741 5.225 1.42447C2.77872 1.42447 0.633333 3.71814 0.633333 6.3328C0.633333 12.4051 8.33693 16.8892 9.5 17.531Z" fill="#333333"/>
</g>
<defs>
<clipPath id="clip0_365_1000">
<rect width="19" height="19" fill="white" transform="matrix(-1 0 0 1 19 -0.000488281)"/>
</clipPath>
</defs>
</svg>
